<?xml version='1.0' encoding='utf-8'?>
<svg xmlns="http://www.w3.org/2000/svg" version="1.1" id="Layer_1" x="0px" y="0px" viewBox="0 0 2598.051 312.277" enable-background="new 0 0 2598.051 312.277"> <g id="Layer_x0020_1"> <g id="_635827488"> <path d="M2328.776,21.828c-39.972,7.054-84.433,23.086-129.321,41.896c5.558,3.634,10.688,7.481,15.818,11.756 c65.836-27.36,132.742-47.881,205.846-39.972c176.561,19.238,158.178,170.362,99.61,200.074 c-32.063,16.246-109.229,10.474-116.283-55.79c-2.138-20.307,2.992-42.965,16.459-57.714c7.696-8.336,5.344-6.84,14.963-3.634 c11.115,4.062,22.872,6.627,32.705,0.428c25.437-16.245-12.398-46.385-51.088-16.887c-56.217,42.751-39.544,165.66,75.883,158.178 c85.074-5.557,110.084-115.855,60.065-179.981C2505.124,18.408,2404.873,8.148,2328.776,21.828z"/> <path d="M269.275,21.828c39.972,7.054,84.433,23.086,129.321,41.896c-5.557,3.634-10.688,7.481-15.818,11.756 c-65.836-27.36-132.742-47.881-205.846-39.972C0.371,54.746,18.755,205.871,77.323,235.583 c32.063,16.246,109.229,10.474,116.283-55.79c2.138-20.307-2.992-42.965-16.459-57.714c-7.696-8.336-5.344-6.84-14.963-3.634 c-11.116,4.062-22.872,6.627-32.705,0.428c-25.437-16.245,12.398-46.385,51.088-16.887 c56.217,42.751,39.544,165.66-75.883,158.178C19.609,254.607-5.4,144.31,44.619,80.183 C92.927,18.408,193.178,8.148,269.275,21.828z"/> <path d="M2275.551,163.761h100.038c0.427-5.344,1.069-10.688,2.138-15.818H2271.49 C2272.987,153.287,2274.483,158.417,2275.551,163.761z"/> <path d="M322.5,163.761H222.462c-0.427-5.344-1.069-10.688-2.138-15.818h106.237C325.064,153.287,323.568,158.417,322.5,163.761z"/> <path d="M2415.134,163.761h135.306c0.428-5.344,0.428-10.688,0-15.818h-131.887 C2416.843,153.073,2415.774,158.417,2415.134,163.761z"/> <path d="M182.917,163.761H47.611c-0.428-5.344-0.428-10.688,0-15.818h131.887C181.208,153.073,182.277,158.417,182.917,163.761z"/> <path d="M2178.507,91.512c-6.413-4.061-12.825-7.695-19.238-10.688c-37.193,16.459-73.959,33.559-107.091,47.24l-128.467,47.667 c-23.513,8.123-70.753,20.521-70.967,35.911c-0.214,17.528,33.559,10.688,33.987-2.565v-1.924l101.533-35.483 c54.935-20.093,109.228-43.606,163.309-67.974C2160.551,99.635,2169.53,95.574,2178.507,91.512z"/> <path d="M419.544,91.512c6.413-4.061,12.825-7.695,19.238-10.688c37.193,16.459,73.959,33.559,107.091,47.24l128.466,47.667 c23.513,8.123,70.753,20.521,70.966,35.911c0.214,17.528-33.559,10.688-33.987-2.565v-1.924L609.786,171.67 c-54.935-20.093-109.228-43.606-163.309-67.974C437.5,99.635,428.521,95.574,419.544,91.512z"/> <path d="M1967.532,147.943h-111.367l-7.482,3.634c-8.336,4.061-16.459,8.122-24.795,12.184h101.107L1967.532,147.943z"/> <path d="M630.519,147.943h111.367l7.482,3.634c8.336,4.061,16.459,8.122,24.795,12.184H673.057L630.519,147.943z"/> <path d="M1345.506,163.761h317.853c2.138-2.351,4.061-4.916,5.985-7.481c2.137-2.565,4.061-5.344,5.985-8.336h-329.824V163.761z"/> <path d="M1252.545,163.761H934.693c-2.138-2.351-4.061-4.916-5.985-7.481c-2.137-2.565-4.061-5.344-5.985-8.336h329.824V163.761z"/> <path d="M2224.891,147.943h-147.276c-12.825,5.344-25.651,10.688-38.476,15.818h191.951 C2229.595,158.417,2227.457,153.073,2224.891,147.943z"/> <path d="M373.16,147.943h147.276c12.825,5.344,25.651,10.688,38.476,15.818H366.961 C368.456,158.417,370.594,153.073,373.16,147.943z"/> <path d="M1927.345,51.326c-66.691,22.23-162.667,75.241-230.855,115.641c4.703-6.626,8.551-13.039,11.757-19.452 c4.061-8.764,7.268-17.314,9.191-26.292c2.352-9.405,3.634-19.238,3.42-29.284c-0.428-8.978-1.924-17.955-4.917-26.292 c-3.634-8.978-8.978-17.314-16.246-24.368c-6.84-6.626-15.39-11.97-25.223-15.604c-9.619-3.634-20.734-5.344-31.422-5.558 c-11.115,0-22.017,1.496-30.994,4.703c-8.123,2.992-14.749,7.268-19.665,11.756c-6.413,6.199-10.047,13.039-10.902,18.811 c-0.641,3.848,0,7.268,1.283,10.046c1.283,2.779,3.206,4.703,5.557,6.199c2.565,1.283,5.344,1.924,8.337,1.496 c2.993-0.427,5.985-1.71,8.55-4.275c5.985-5.344,10.047-16.459,13.895-28.216c6.626-2.138,15.176-3.206,23.727-3.206 c8.764,0.214,17.956,1.71,25.65,4.489c7.482,2.779,13.895,6.84,19.239,11.756c5.344,5.13,9.405,11.329,11.97,18.169 c2.352,6.413,3.634,13.467,3.848,20.521c0.213,8.336-0.855,16.673-2.993,25.009c-1.71,7.695-4.275,15.176-7.909,22.444 c-3.634,7.481-8.55,14.963-14.535,23.086c-50.66,66.264-162.881,100.892-242.826,87.212 c-61.134-10.26-111.579-51.729-106.877-116.496c3.206-47.667,53.011-56.431,85.074-49.591 c5.131,11.115,11.33,25.223,22.231,31.422c17.314,9.833,36.979-1.924,31.208-19.238c-8.978-26.933-54.507-38.689-86.785-34.628 c-95.335,11.757-84.006,110.084-46.599,157.109c68.829,86.784,222.519,54.508,308.234,20.52 c126.97-50.66,325.976-181.05,454.656-177.63c37.621,0.855,65.195,9.191,92.556,29.284 c104.953,77.379,46.171,193.234-41.896,182.333c-18.81-2.138-35.269-11.543-49.377-21.162c2.778-17.742,5.558-37.193-7.268-44.889 c-25.864-15.39-66.264,36.552,19.665,77.379c99.61,47.24,203.281-63.057,134.879-166.301 C2178.293,17.553,2029.734,17.126,1927.345,51.326z"/> <path d="M670.706,51.326c66.691,22.23,162.667,75.241,230.855,115.641c-4.703-6.626-8.551-13.039-11.757-19.452 c-4.061-8.764-7.268-17.314-9.191-26.292c-2.352-9.405-3.634-19.238-3.42-29.284c0.428-8.978,1.924-17.955,4.917-26.292 c3.634-8.978,8.978-17.314,16.246-24.368c6.84-6.626,15.39-11.97,25.223-15.604c9.619-3.634,20.734-5.344,31.422-5.558 c11.115,0,22.017,1.496,30.994,4.703c8.123,2.992,14.749,7.268,19.665,11.756c6.413,6.199,10.047,13.039,10.902,18.811 c0.641,3.848,0,7.268-1.283,10.046c-1.283,2.779-3.206,4.703-5.557,6.199c-2.565,1.283-5.344,1.924-8.336,1.496 c-2.993-0.427-5.985-1.71-8.55-4.275c-5.985-5.344-10.047-16.459-13.895-28.216c-6.626-2.138-15.176-3.206-23.727-3.206 c-8.764,0.214-17.956,1.71-25.65,4.489c-7.482,2.779-13.895,6.84-19.239,11.756c-5.343,5.13-9.405,11.329-11.97,18.169 c-2.352,6.413-3.634,13.467-3.848,20.521c-0.213,8.336,0.855,16.673,2.993,25.009c1.71,7.695,4.275,15.176,7.909,22.444 c3.634,7.481,8.55,14.963,14.535,23.086c50.66,66.264,162.881,100.892,242.826,87.212 c61.134-10.26,111.579-51.729,106.877-116.496c-3.206-47.667-53.011-56.431-85.074-49.591 c-5.131,11.115-11.329,25.223-22.231,31.422c-17.314,9.833-36.979-1.924-31.208-19.238c8.978-26.933,54.508-38.689,86.785-34.628 c95.335,11.757,84.006,110.084,46.599,157.109c-68.829,86.784-222.519,54.508-308.234,20.52 c-126.97-50.66-325.976-181.05-454.656-177.63c-37.621,0.855-65.195,9.191-92.556,29.284 c-104.953,77.379-46.17,193.234,41.896,182.333c18.81-2.138,35.269-11.543,49.377-21.162c-2.778-17.742-5.558-37.193,7.268-44.889 c25.864-15.39,66.264,36.552-19.665,77.379c-99.61,47.24-203.281-63.057-134.879-166.301 C419.758,17.553,568.317,17.126,670.706,51.326z"/> </g> </g> </svg>