<?xml version='1.0' encoding='utf-8'?>
<svg xmlns="http://www.w3.org/2000/svg" id="Layer_1" data-name="Layer 1" viewBox="0 0 3274.5 749.5"><defs><style>.cls-1{fill:#ccc;}.cls-2{fill:#e6e6e6;}.cls-3{fill:#0071bc;}.cls-4{fill:#29abe2;}.cls-5{fill:#333;}.cls-6{fill:#00527f;}.cls-7{fill:#fbb03b;}</style></defs><title>Feedback</title><path class="cls-1" d="M453,475.25h682a15,15,0,0,1,15,15v70a15,15,0,0,1-15,15H453Z" transform="translate(-50 -225.25)"/><path class="cls-2" d="M500,375.25c-150,4.75-385,0-385,0a15,15,0,0,0-15,15v270a15,15,0,0,0,15,15s235-.25,385,0c154.62.26,600,150,600,150v-600S654.54,370.36,500,375.25Z" transform="translate(-50 -225.25)"/><path class="cls-3" d="M453,675.19c-147.45-.14-338,.06-338,.06a15,15,0,0,1-15-15v-270a15,15,0,0,1,15-15s190.55,3.85,338,1.15Z" transform="translate(-50 -225.25)"/><path class="cls-4" d="M100,600.25H65a15,15,0,0,1-15-15v-120a15,15,0,0,1,15-15h35Z" transform="translate(-50 -225.25)"/><rect class="cls-5" x="158" y="225" width="25" height="150" rx="12.5" ry="12.5"/><rect class="cls-5" x="208" y="225" width="25" height="150" rx="12.5" ry="12.5"/><rect class="cls-5" x="108" y="225" width="25" height="150" rx="12.5" ry="12.5"/><path class="cls-6" d="M100,450H300a0,0,0,0,1,0,0v85a15,15,0,0,1-15,15H115a15,15,0,0,1-15-15V450A0,0,0,0,1,100,450Z"/><path class="cls-6" d="M170.5,549.5h100a0,0,0,0,1,0,0v185a15,15,0,0,1-15,15h-70a15,15,0,0,1-15-15v-185a0,0,0,0,1,0,0Z"/><rect class="cls-4" x="228.5" y="569.5" width="25" height="160" rx="12.5" ry="12.5"/><polygon class="cls-7" points="1274.5 174.76 1313.13 257.05 1399.5 270.25 1337 334.31 1351.75 424.76 1274.5 382.05 1197.25 424.76 1212 334.31 1149.5 270.25 1235.87 257.05 1274.5 174.76"/><polygon class="cls-7" points="1618.25 143.51 1666.53 246.38 1774.5 262.87 1696.38 342.94 1714.82 456.01 1618.25 402.63 1521.68 456.01 1540.13 342.94 1462 262.87 1569.97 246.38 1618.25 143.51"/><polygon class="cls-7" points="2024.5 112.26 2082.44 235.7 2212 255.5 2118.25 351.58 2140.38 487.26 2024.5 423.2 1908.62 487.26 1930.75 351.58 1837 255.5 1966.56 235.7 2024.5 112.26"/><polygon class="cls-7" points="2493.25 81.01 2560.85 225.02 2712 248.12 2602.63 360.22 2628.45 518.51 2493.25 443.77 2358.05 518.51 2383.88 360.22 2274.5 248.12 2425.65 225.02 2493.25 81.01"/><polygon class="cls-7" points="3024.5 49.76 3101.75 214.35 3274.5 240.74 3149.5 368.86 3179.01 549.76 3024.5 464.35 2869.99 549.76 2899.5 368.86 2774.5 240.74 2947.25 214.35 3024.5 49.76"/></svg>