<?xml version="1.0" encoding="UTF-8"?>
<svg width="84mm" height="50mm" version="1.1" viewBox="0 0 84 50" xmlns="http://www.w3.org/2000/svg">
 <defs>
  <linearGradient id="k" x1="384.25" x2="384.25" y1="258.08" y2="656.21" gradientTransform="matrix(.057755 0 0 .057755 7.8079 -1.6932)" gradientUnits="userSpaceOnUse">
   <stop stop-color="#fff" stop-opacity=".61561" offset="0"/>
   <stop stop-color="#fff" stop-opacity="0" offset="1"/>
  </linearGradient>
  <linearGradient id="l" x1="55.428" x2="115.09" y1="197.57" y2="94.223" gradientTransform="matrix(-.18904 -.10914 -.10914 .18904 62.476 8.2467)" gradientUnits="userSpaceOnUse">
   <stop stop-color="#d4aa00" offset="0"/>
   <stop stop-color="#9d7e01" offset=".125"/>
   <stop stop-color="#deb303" offset=".25"/>
   <stop stop-color="#fde172" offset=".375"/>
   <stop stop-color="#ab8a04" offset=".5"/>
   <stop stop-color="#fad647" offset=".625"/>
   <stop stop-color="#f9e282" offset=".75"/>
   <stop stop-color="#dbb105" offset=".875"/>
   <stop stop-color="#ffcf0d" offset="1"/>
  </linearGradient>
  <linearGradient id="m" x1="67.374" x2="111.31" y1="176.85" y2="100.74" gradientUnits="userSpaceOnUse">
   <stop stop-color="#fc0" offset="0"/>
   <stop stop-color="#ffd017" offset=".25"/>
   <stop stop-color="#ffea98" offset=".5"/>
   <stop stop-color="#ffda4e" offset="1"/>
  </linearGradient>
  <linearGradient id="n" x1="225.2" x2="285.03" y1="52.527" y2="112.36" gradientTransform="matrix(.26458 0 0 .29745 0 -4.723)" gradientUnits="userSpaceOnUse">
   <stop stop-color="#fff" offset="0"/>
   <stop stop-color="#fff" stop-opacity="0" offset="1"/>
  </linearGradient>
  <radialGradient id="p" cx="64.21" cy="34.938" r="7.3166" gradientTransform="matrix(2.402 -2.402 1.3464 1.3464 -138.26 144.22)" gradientUnits="userSpaceOnUse">
   <stop stop-color="#9c1700" offset="0"/>
   <stop stop-color="#e60000" offset=".5939"/>
   <stop stop-color="#ff9e9e" offset="1"/>
  </radialGradient>
  <filter id="i" x="-.11706" y="-.12309" width="1.2341" height="1.2462" color-interpolation-filters="sRGB">
   <feGaussianBlur stdDeviation="5.4355352"/>
  </filter>
  <filter id="j" x="-.11893" y="-.12109" width="1.2379" height="1.2422" color-interpolation-filters="sRGB">
   <feGaussianBlur stdDeviation="1.0856819"/>
  </filter>
  <linearGradient id="o" x1="67.493" x2="67.493" y1="38.987" y2="19.61" gradientTransform="matrix(1 0 0 1.1242 0 -4.723)" gradientUnits="userSpaceOnUse">
   <stop stop-color="#d43a00" offset="0"/>
   <stop stop-color="#9d1c01" offset=".125"/>
   <stop stop-color="#de0803" offset=".25"/>
   <stop stop-color="#fd7272" offset=".375"/>
   <stop stop-color="#ab2104" offset=".5"/>
   <stop stop-color="#fa4747" offset=".625"/>
   <stop stop-color="#f98282" offset=".75"/>
   <stop stop-color="#db1a05" offset=".875"/>
   <stop stop-color="#ff370d" offset="1"/>
  </linearGradient>
 </defs>
 <g transform="translate(0,-247)">
  <g transform="translate(-23.043 243.71)">
   <g transform="translate(17.64 .39509)">
    <rect transform="translate(-17.64 -.39509)" x="63.947" y="7.7537" width="41.955" height="41.955" fill="none" style="paint-order:normal"/>
    <path d="m71.714 18.9c-0.66744-3.5e-5 -1.3291 0.10913-1.9539 0.34468-1.0287 0.38784-1.8247 1.2707-2.4236 2.3869-0.90446-1.7357-2.5117-2.645-4.2034-2.7228-1.997-0.09184-4.0755 0.7774-5.4276 2.2794s-1.9109 3.7386-0.7307 6.0368l0.0098 0.01757 0.0098 0.01964c2.2042 3.6445 6.571 8.4055 9.7989 12.532l0.48834 0.62477 0.48834-0.62477c3.2279-4.126 7.5926-8.887 9.7968-12.532l0.01189-0.01964 0.0093-0.01757c0.89923-1.751 0.80674-3.4834 0.09405-4.8555s-1.9931-2.3981-3.4334-2.9688c-0.72013-0.28536-1.4845-0.45879-2.2484-0.49403-0.09549-0.0044-0.19094-0.0067-0.28629-0.0067z" color="#000000" color-rendering="auto" dominant-baseline="auto" fill-rule="evenodd" filter="url(#j)" image-rendering="auto" opacity=".25" shape-rendering="auto" solid-color="#000000" style="font-feature-settings:normal;font-variant-alternates:normal;font-variant-caps:normal;font-variant-ligatures:normal;font-variant-numeric:normal;font-variant-position:normal;isolation:auto;mix-blend-mode:normal;shape-padding:0;text-decoration-color:#000000;text-decoration-line:none;text-decoration-style:solid;text-indent:0;text-orientation:mixed;text-transform:none;white-space:normal"/>
    <path d="m72.014 17.262c-0.79388-0.03658-1.5899 0.07077-2.3398 0.35352-0.94419 0.35598-1.7018 1.1158-2.3203 2.0547-0.9855-1.5343-2.584-2.3317-4.2051-2.4062-2.08-0.09566-4.2198 0.79816-5.627 2.3613-1.4071 1.5632-1.9882 3.9377-0.76562 6.3184l0.01367 0.02734 0.01563 0.02539c2.2306 3.688 6.5961 8.4429 9.8145 12.557l0.68555 0.875 0.68555-0.875c3.2183-4.1137 7.5838-8.8685 9.8145-12.557l0.01563-0.02539 0.01367-0.02734c0.93151-1.8139 0.84009-3.6471 0.09375-5.084-0.74635-1.4369-2.0752-2.4958-3.5645-3.0859-0.74461-0.29506-1.5362-0.47514-2.3301-0.51172zm-8.9453 1.7422c1.5731 0.07234 2.8659 0.80074 3.3691 2.9121h1.6934c0.36597-1.5355 1.1588-2.2951 2.1582-2.6719 0.99944-0.37682 2.2658-0.30658 3.4141 0.14844s2.1482 1.2838 2.6602 2.2695c0.50908 0.9801 0.60184 2.0993-0.0918 3.4648-1.9211 3.1643-5.8051 7.5319-8.9863 11.514-3.1802-3.9805-7.0626-8.3456-8.9844-11.51-0.91452-1.7969-0.50464-3.2064 0.51562-4.3398 1.024-1.1375 2.7503-1.8562 4.252-1.7871z" color="#000000" color-rendering="auto" dominant-baseline="auto" fill="url(#o)" fill-rule="evenodd" image-rendering="auto" shape-rendering="auto" solid-color="#000000" style="font-feature-settings:normal;font-variant-alternates:normal;font-variant-caps:normal;font-variant-ligatures:normal;font-variant-numeric:normal;font-variant-position:normal;isolation:auto;mix-blend-mode:normal;shape-padding:0;text-decoration-color:#000000;text-decoration-line:none;text-decoration-style:solid;text-indent:0;text-orientation:mixed;text-transform:none;white-space:normal"/>
    <path d="m71.994 17.736c-0.73706-0.03404-1.4705 0.06521-2.1523 0.32227-1.1087 0.41801-1.9626 1.3937-2.5215 2.707-0.80882-1.9507-2.436-2.9465-4.1934-3.0273-1.9226-0.08841-3.9491 0.75779-5.252 2.2051-1.3028 1.4473-1.8396 3.5589-0.69727 5.7832l0.0059 0.01367 0.0078 0.01172c2.1806 3.6055 6.5447 8.3707 9.7812 12.508l0.3125 0.40039 0.3125-0.40039c3.2365-4.1371 7.6006-8.9023 9.7812-12.508l0.0078-0.01172 0.0059-0.01367c0.87032-1.6947 0.77824-3.3344 0.0957-4.6484s-1.922-2.3099-3.3184-2.8633c-0.6982-0.27667-1.4387-0.44448-2.1758-0.47852zm-8.9043 0.79297c1.7381 0.07993 3.2636 0.99054 3.8086 3.2773h0.77148c0.39638-1.6631 1.3155-2.5777 2.4512-3.0059 1.1357-0.42818 2.5167-0.34141 3.7578 0.15039s2.3285 1.3836 2.9043 2.4922c0.57423 1.1055 0.66742 2.4198-0.09375 3.9102-2.038 3.3639-6.1777 7.954-9.4043 12.035-3.2262-4.0807-7.3661-8.6694-9.4043-12.033-1.0008-1.9581-0.54228-3.6317 0.58398-4.8828 1.1283-1.2534 2.9659-2.0197 4.625-1.9434z" color="#000000" color-rendering="auto" dominant-baseline="auto" fill="#faa" fill-rule="evenodd" image-rendering="auto" shape-rendering="auto" solid-color="#000000" style="font-feature-settings:normal;font-variant-alternates:normal;font-variant-caps:normal;font-variant-ligatures:normal;font-variant-numeric:normal;font-variant-position:normal;isolation:auto;mix-blend-mode:normal;shape-padding:0;text-decoration-color:#000000;text-decoration-line:none;text-decoration-style:solid;text-indent:0;text-orientation:mixed;text-transform:none;white-space:normal"/>
    <path d="m63.108 18.133c-3.5817-0.16471-7.7282 3.2256-5.578 7.4125 2.1389 3.5364 6.5032 8.3133 9.755 12.47 3.2518-4.1566 7.6166-8.9335 9.7555-12.47 3.2765-6.3801-8.0682-10.91-9.7555-3.8309-0.58001-2.4336-2.3009-3.4954-4.177-3.5817z" fill="url(#p)" fill-rule="evenodd"/>
    <path d="m62.771 18.128c-3.4975 0.05307-7.324 3.3616-5.241 7.4178 0.93748 1.55 2.3115 3.3436 3.823 5.2136a16.183 12.376 0 0 0 0.13952 0.0052 16.183 12.376 0 0 0 15.69 -9.4076c-1.818-3.7083-8.621-4.9983-9.8976 0.35788-0.58001-2.4336-2.3009-3.4954-4.177-3.5817-0.11193-0.0051-0.22411-0.0069-0.33693-0.0052z" fill="url(#n)" opacity=".66763" style="paint-order:normal"/>
   </g>
  </g>
  <g transform="translate(-6.3742 243.71)">
   <rect x="7.5595" y="7.7537" width="41.955" height="41.955" fill="none" style="paint-order:normal"/>
   <g transform="translate(-1.132 -.65376)">
    <path transform="matrix(-.18904 -.10914 -.10914 .18904 62.476 9.1961)" d="m111.31 100.74-2.5325 38.823 30.545 24.095-37.705 9.5883l-13.477 36.496-20.771-32.897-38.875-1.5394 24.868-29.92-10.549-37.448 36.14 14.405z" filter="url(#i)" opacity=".25" stroke="#000" stroke-linecap="round" stroke-opacity=".98101" stroke-width="6.756" style="paint-order:normal"/>
    <g transform="translate(0 .37181)">
     <path d="m30.438 13.476 0.66125 1.3403 3.5868 7.2676 9.4994 1.3806-6.8738 6.7001 1.6226 9.4605-8.4964-4.4668-8.4965 4.467 1.6228-9.4609-6.8736-6.7003 9.4993-1.3802zm-3e-5 3.3324-3.2688 6.6236-7.3095 1.0622 5.2893 5.1554-1.2488 7.2799 6.5377-3.4372 6.5377 3.4373-1.2485-7.2802 5.2893-5.1554-7.3094-1.062z" color="#000000" color-rendering="auto" dominant-baseline="auto" fill="url(#l)" fill-opacity=".98101" image-rendering="auto" shape-rendering="auto" solid-color="#000000" style="font-feature-settings:normal;font-variant-alternates:normal;font-variant-caps:normal;font-variant-ligatures:normal;font-variant-numeric:normal;font-variant-position:normal;isolation:auto;mix-blend-mode:normal;paint-order:normal;shape-padding:0;text-decoration-color:#000000;text-decoration-line:none;text-decoration-style:solid;text-indent:0;text-orientation:mixed;text-transform:none;white-space:normal"/>
     <path d="m30.438 14.315 0.32834 0.66513 3.6735 7.4432 8.9482 1.3002-6.4751 6.3114 1.5287 8.912-8.0037-4.2074-8.0036 4.2076 1.5286-8.9123-6.4748-6.3115 8.948-1.3002zm-2.1e-5 1.6551-3.5152 7.1228-7.8606 1.1418 5.6878 5.5445-1.3424 7.8284 7.0304-3.6962 7.0306 3.6963-1.343-7.8286 5.6879-5.544-7.8603-1.1422z" color="#000000" color-rendering="auto" dominant-baseline="auto" fill="#ffe680" fill-opacity=".98101" image-rendering="auto" shape-rendering="auto" solid-color="#000000" style="font-feature-settings:normal;font-variant-alternates:normal;font-variant-caps:normal;font-variant-ligatures:normal;font-variant-numeric:normal;font-variant-position:normal;isolation:auto;mix-blend-mode:normal;paint-order:normal;shape-padding:0;text-decoration-color:#000000;text-decoration-line:none;text-decoration-style:solid;text-indent:0;text-orientation:mixed;text-transform:none;white-space:normal"/>
     <path transform="matrix(-.18904 -.10914 -.10914 .18904 62.476 8.2467)" d="m111.31 100.74-2.5325 38.823 30.545 24.095-37.705 9.5883l-13.477 36.496-20.771-32.897-38.875-1.5394 24.868-29.92-10.549-37.448 36.14 14.405z" fill="url(#m)" style="paint-order:normal"/>
     <path d="m30.438 15.142-3.7585 7.6156-8.4043 1.2212 4.1134 4.0095a20.886 10.443 0 0 0 8.6979 0.96176 20.886 10.443 0 0 0 7.0732 -0.6423l4.4411-4.329-8.4043-1.2212z" color="#000000" color-rendering="auto" dominant-baseline="auto" fill="url(#k)" image-rendering="auto" shape-rendering="auto" solid-color="#000000" style="font-feature-settings:normal;font-variant-alternates:normal;font-variant-caps:normal;font-variant-ligatures:normal;font-variant-numeric:normal;font-variant-position:normal;isolation:auto;mix-blend-mode:normal;paint-order:normal;shape-padding:0;text-decoration-color:#000000;text-decoration-line:none;text-decoration-style:solid;text-indent:0;text-orientation:mixed;text-transform:none;white-space:normal"/>
    </g>
   </g>
  </g>
 </g>
</svg>
