<?xml version="1.0" encoding="UTF-8" standalone="no"?>
<svg
   xmlns:dc="http://purl.org/dc/elements/1.1/"
   xmlns:cc="http://creativecommons.org/ns#"
   xmlns:rdf="http://www.w3.org/1999/02/22-rdf-syntax-ns#"
   xmlns:svg="http://www.w3.org/2000/svg"
   xmlns="http://www.w3.org/2000/svg"
   xmlns:sodipodi="http://sodipodi.sourceforge.net/DTD/sodipodi-0.dtd"
   xmlns:inkscape="http://www.inkscape.org/namespaces/inkscape"
   version="1.1"
   id="Layer_1"
   x="0px"
   y="0px"
   viewBox="0 0 1694 1640"
   style="enable-background:new 0 0 1694 1640;"
   xml:space="preserve"
   sodipodi:docname="tmpf.svg"
   inkscape:version="1.0.2-2 (e86c870879, 2021-01-15)"><metadata
   id="metadata53"><rdf:RDF><cc:Work
       rdf:about=""><dc:format>image/svg+xml</dc:format><dc:type
         rdf:resource="http://purl.org/dc/dcmitype/StillImage" /><dc:title /></cc:Work></rdf:RDF></metadata><defs
   id="defs51"><radialGradient
     id="l"
     cx="42.75"
     cy="6.9502001"
     r="5.6125002"
     gradientTransform="matrix(0.04090749,0,0,-0.04090749,-11.448648,-9.9091714)"
     gradientUnits="userSpaceOnUse"><stop
       stop-color="#B3A983"
       offset="0"
       id="stop4-4" /><stop
       stop-color="#8C7F53"
       offset="1"
       id="stop6-0" /></radialGradient><radialGradient
     id="m"
     cx="22.65"
     cy="5.5497999"
     r="39.224998"
     gradientTransform="matrix(0.04090749,0,0,-0.03839167,-11.448648,-10.037703)"
     gradientUnits="userSpaceOnUse"><stop
       stop-color="#F7F2DC"
       offset="0"
       id="stop11" /><stop
       stop-color="#D6CAA3"
       offset="1"
       id="stop13" /></radialGradient><linearGradient
     id="n"
     x1="24.615999"
     x2="37.368999"
     y1="-16.304001"
     y2="-16.304001"
     gradientTransform="matrix(8.4269421e-4,0.04089931,-0.04089931,8.4269421e-4,-11.448663,-10.477801)"
     gradientUnits="userSpaceOnUse"><stop
       stop-color="#ADB53D"
       offset="0"
       id="stop40" /><stop
       stop-color="#69701E"
       offset="1"
       id="stop42" /></linearGradient><linearGradient
     id="o"
     x1="26.028"
     x2="36.355999"
     y1="-16.319"
     y2="-16.319"
     gradientTransform="matrix(8.4269421e-4,0.04089931,-0.04089931,8.4269421e-4,-11.448633,-10.477774)"
     gradientUnits="userSpaceOnUse"><stop
       stop-color="#C8D146"
       offset="0"
       id="stop49" /><stop
       stop-color="#7D8523"
       offset="1"
       id="stop51" /></linearGradient><linearGradient
     id="p"
     x1="26.429001"
     x2="36.056"
     y1="-16.128"
     y2="-16.128"
     gradientTransform="matrix(8.508757e-4,0.04089931,-0.04089931,8.508757e-4,-11.448658,-10.477776)"
     gradientUnits="userSpaceOnUse"><stop
       stop-color="#CFE065"
       offset="0"
       id="stop56" /><stop
       stop-color="#D8E063"
       offset="1"
       id="stop58" /></linearGradient><linearGradient
     id="q"
     x1="26.728001"
     x2="35.755001"
     y1="-16.077999"
     y2="-16.077999"
     gradientTransform="matrix(8.508757e-4,0.04089931,-0.04089931,8.508757e-4,-11.448662,-10.477801)"
     gradientUnits="userSpaceOnUse"><stop
       stop-color="#C8D146"
       offset="0"
       id="stop63" /><stop
       stop-color="#7D8523"
       offset="1"
       id="stop65" /></linearGradient><linearGradient
     id="r"
     x1="33.598"
     x2="36.950001"
     y1="-19.235001"
     y2="-19.235001"
     gradientTransform="matrix(-0.00137449,0.04088294,-0.04088294,-0.00137449,-11.448663,-10.477791)"
     gradientUnits="userSpaceOnUse"><stop
       stop-color="#C8D146"
       offset="0"
       id="stop72" /><stop
       stop-color="#7D8523"
       offset="1"
       id="stop74" /></linearGradient><linearGradient
     id="s"
     x1="37.108002"
     x2="41.667999"
     y1="-21.23"
     y2="-21.23"
     gradientTransform="matrix(-0.00269171,0.04081749,-0.04081749,-0.00269171,-11.448628,-10.477783)"
     gradientUnits="userSpaceOnUse"><stop
       stop-color="#F7F2DC"
       offset="0"
       id="stop81" /><stop
       stop-color="#D6CAA3"
       offset="1"
       id="stop83" /></linearGradient><linearGradient
     id="t"
     x1="37.263"
     x2="42.014999"
     y1="-19.51"
     y2="-19.51"
     gradientTransform="matrix(-0.00129267,0.04088703,-0.04088703,-0.00129267,-11.448683,-10.477793)"
     gradientUnits="userSpaceOnUse"><stop
       stop-color="#8C897C"
       offset="0"
       id="stop92" /><stop
       stop-color="#D6CAA3"
       offset="1"
       id="stop94" /></linearGradient><linearGradient
     id="k"
     x1="36.766998"
     x2="46.646999"
     y1="-15.156"
     y2="-15.156"
     gradientTransform="matrix(-0.00134586,0.04088703,-0.04088703,-0.00134586,-11.448608,-10.477783)"
     gradientUnits="userSpaceOnUse"><stop
       stop-color="#C8D146"
       offset="0"
       id="stop99" /><stop
       stop-color="#7D8523"
       offset="1"
       id="stop101" /></linearGradient></defs><sodipodi:namedview
   pagecolor="#ffffff"
   bordercolor="#666666"
   borderopacity="1"
   objecttolerance="10"
   gridtolerance="10"
   guidetolerance="10"
   inkscape:pageopacity="0"
   inkscape:pageshadow="2"
   inkscape:window-width="1920"
   inkscape:window-height="1017"
   id="namedview49"
   showgrid="false"
   showguides="false"
   inkscape:zoom="0.26463415"
   inkscape:cx="121.2579"
   inkscape:cy="1198.3926"
   inkscape:window-x="-8"
   inkscape:window-y="-8"
   inkscape:window-maximized="1"
   inkscape:current-layer="Layer_1"
   inkscape:document-rotation="0" />
<style
   type="text/css"
   id="style2">
	.st0{fill:url(#SVGID_1_);}
	.st1{fill:url(#XMLID_2_);}
	.st2{fill:url(#SVGID_2_);}
	.st3{fill:#3DDC84;}
</style>


<g
   clip-rule="evenodd"
   fill-rule="evenodd"
   id="g118"
   transform="matrix(24.445403,0,0,24.445403,279.86676,256.1337)"
   style="stroke-width:0.0409074"><path
     d="m 37.8,6.2 c -0.3,1.167 -0.333,2.483 -0.1,3.95 -0.267,0.1 -0.584,0.184 -0.95,0.25 -0.566,-3.3 0.083,-5.933 1.95,-7.9 0.6,-0.633 1.267,-1.15 2,-1.55 l 0.95,-0.4 c 0.566,0 0.899,0.034 1,0.1 1.066,0.167 1.833,0.667 2.3,1.5 0.533,0.9 0.816,2.417 0.85,4.55 h -0.25 c -0.066,0.033 -0.133,0.05 -0.2,0.05 L 45.3,6.7 C 45.267,3.633 44.467,1.817 42.901,1.25 42.434,1.117 41.934,1.133 41.401,1.3 l -0.45,0.25 c -0.434,0.3 -0.834,0.633 -1.2,1 C 38.75,3.583 38.1,4.8 37.8,6.2 Z m 3.75,20.85 c -0.033,-0.666 -0.1,-1.333 -0.2,-2 -0.1,-0.733 -0.233,-1.466 -0.399,-2.2 L 40.8,22.2 C 40.5,21.133 40.151,20.05 39.75,18.95 39.483,18.317 39.233,17.75 39,17.25 h 0.05 c -0.533,-1.233 -0.866,-2.05 -1,-2.45 -0.033,-0.066 -0.066,-0.133 -0.1,-0.2 l -0.8,-2.4 -0.05,-0.1 -0.05,-0.3 c -1.133,-0.133 -2.133,-0.35 -3,-0.65 -0.267,-0.033 -0.483,-0.117 -0.65,-0.25 0.2,0 0.45,-0.017 0.75,-0.05 0.133,-0.033 0.316,-0.067 0.55,-0.1 0.934,0.233 1.967,0.383 3.1,0.45 l 0.101,0.05 0.25,1.05 c 0.267,1 0.666,2.117 1.199,3.35 0.301,0.7 0.75,1.75 1.351,3.15 1.033,2.633 1.633,5.284 1.8,7.95 -0.334,0.1 -0.651,0.2 -0.951,0.3 z M 37.9,28.1 c 1.566,0.301 2.916,0.584 4.05,0.851 0.066,0.033 0.133,0.083 0.2,0.149 0.1,0.101 0.183,0.15 0.25,0.15 0,0.167 0.017,0.533 0.05,1.1 v 1.2 c -0.2,-0.033 -0.334,-0.05 -0.4,-0.05 -0.1,0 -0.3,-0.05 -0.6,-0.15 0.066,-0.899 0.1,-1.616 0.1,-2.149 -1.1,-0.267 -2.467,-0.566 -4.1,-0.9 0.1,-0.068 0.25,-0.134 0.45,-0.201 z m 1.95,3.2 c 0.134,0.066 0.301,0.167 0.5,0.3 0.233,0.167 0.601,0.4 1.101,0.7 0.066,0.033 0.2,0.15 0.399,0.351 0.2,0.199 0.351,0.333 0.45,0.399 -0.3,3.066 -0.767,5.55 -1.4,7.45 -0.467,1.267 -0.983,2.217 -1.551,2.85 l -0.049,0.1 c -0.166,0.267 -0.434,0.483 -0.8,0.649 -0.6,0.301 -1.3,0.384 -2.1,0.25 -0.101,0 -0.2,-0.017 -0.301,-0.05 C 35.9,44.233 35.666,44.166 35.4,44.099 35.233,44.033 35.083,43.966 34.95,43.9 34.15,43.533 33.416,43.049 32.75,42.45 32.417,42.183 32.133,41.866 31.9,41.5 31.8,41.267 31.7,41.017 31.6,40.75 31.467,40.217 31.416,39.667 31.45,39.1 l 0.1,-0.6 0.5,-0.2 0.05,1.15 c 0.133,0.866 0.483,1.616 1.05,2.25 0.7,0.767 1.617,1.316 2.75,1.649 0.633,0.167 1.183,0.217 1.649,0.15 0.066,-0.134 0.233,-0.184 0.5,-0.15 0.066,-0.033 0.134,-0.066 0.2,-0.1 l 1.25,-2.1 c 0.2,-0.467 0.384,-0.983 0.55,-1.551 l 1.25,-6.5 c 0,-0.199 0.017,-0.383 0.05,-0.55 -0.767,-0.434 -1.466,-0.767 -2.1,-1 -0.134,0 -0.233,-0.05 -0.3,-0.149 0.133,0 0.3,-0.034 0.5,-0.101 0.101,0.002 0.235,0.002 0.401,0.002 z"
     fill="#b3a383"
     id="path2"
     style="stroke-width:0.00154865" /><radialGradient
     id="radialGradient1072"
     cx="42.75"
     cy="6.9502001"
     r="5.6125002"
     gradientTransform="matrix(1,0,0,-1,0.5,13.866129)"
     gradientUnits="userSpaceOnUse"><stop
       stop-color="#B3A983"
       offset="0"
       id="stop1068" /><stop
       stop-color="#8C7F53"
       offset="1"
       id="stop1070" /></radialGradient><path
     d="M 45.35,6.75 C 43.917,6.617 41.4,6.433 37.8,6.2 c 0.3,-1.4 0.95,-2.617 1.95,-3.65 0.366,-0.367 0.767,-0.7 1.2,-1 L 41.4,1.3 c 0.533,-0.167 1.033,-0.183 1.5,-0.05 1.566,0.567 2.366,2.383 2.399,5.45 z"
     fill="url(#l)"
     id="path9"
     style="fill:url(#l);stroke-width:0.0409074" /><radialGradient
     id="radialGradient1079"
     cx="22.65"
     cy="5.5497999"
     r="39.224998"
     gradientTransform="matrix(1,0,0,-0.9385,0.5,10.724129)"
     gradientUnits="userSpaceOnUse"><stop
       stop-color="#F7F2DC"
       offset="0"
       id="stop1075" /><stop
       stop-color="#D6CAA3"
       offset="1"
       id="stop1077" /></radialGradient><path
     d="m 36.75,10.4 c -0.066,0.033 -0.116,0.05 -0.15,0.05 -0.5,0.1 -1.083,0.2 -1.75,0.3 h -0.149 c -0.233,0.033 -0.417,0.067 -0.55,0.1 -0.3,0.033 -0.55,0.05 -0.75,0.05 0.167,0.133 0.383,0.217 0.65,0.25 0.867,0.3 1.867,0.517 3,0.65 l 0.05,0.3 c -0.6,0 -1.616,-0.083 -3.05,-0.25 l -2.25,-0.3 c -0.2,0.233 -0.466,0.6 -0.8,1.1 -0.333,0.434 -0.633,0.783 -0.9,1.05 -0.267,0.333 -0.583,0.633 -0.95,0.9 -0.1,0.133 -0.167,0.2 -0.2,0.2 0.066,0.434 0.316,0.9 0.75,1.4 0.233,0.3 0.6,0.716 1.1,1.25 0.3,0.333 0.633,0.733 1,1.2 0.1,0.067 0.133,0.167 0.1,0.3 C 32,18.983 32.233,19 32.6,19 c 0.167,0 0.367,-0.017 0.6,-0.05 h 1.7 c 0.199,0.033 0.399,-0.034 0.6,-0.2 0.267,-0.167 0.45,-0.283 0.55,-0.35 1.066,-0.667 1.983,-1.05 2.75,-1.15 H 39 c 0.233,0.5 0.483,1.067 0.75,1.7 0.4,1.1 0.75,2.183 1.05,3.25 h -0.05 l -0.1,-0.1 c -0.233,0 -0.567,0.033 -1,0.1 h -1.5 c -0.034,0.167 -0.567,0.316 -1.601,0.45 L 33.8,22.8 c -0.066,0 -0.3,0.017 -0.7,0.05 -1.133,0 -1.8,0.017 -2,0.05 0.333,0.2 0.867,0.467 1.6,0.8 0.633,0.367 1.083,0.75 1.35,1.15 0.267,0.4 0.483,0.683 0.65,0.85 0.066,0.1 0.133,0.217 0.2,0.35 0,0.066 0.033,0.15 0.1,0.25 0.066,0.066 0.217,0.117 0.45,0.15 1.066,0.3 1.85,0.666 2.35,1.1 0.167,-0.066 0.3,-0.184 0.4,-0.35 l 3.149,-2.15 c 0.101,0.667 0.167,1.334 0.2,2 -0.133,0.033 -0.267,0.066 -0.399,0.101 -0.567,0.166 -1,0.283 -1.301,0.35 -0.433,0.134 -0.816,0.25 -1.149,0.35 -0.3,0.067 -0.566,0.15 -0.8,0.25 -0.2,0.067 -0.351,0.134 -0.45,0.2 1.633,0.334 3,0.634 4.1,0.9 0,0.533 -0.033,1.25 -0.1,2.149 v 0.101 c -0.733,-0.101 -1.267,-0.15 -1.601,-0.15 H 39.45 c -0.2,0.066 -0.367,0.101 -0.5,0.101 0.066,0.1 0.166,0.149 0.3,0.149 0.634,0.233 1.333,0.566 2.1,1 -0.033,0.167 -0.05,0.351 -0.05,0.55 -0.1,-0.033 -0.166,-0.033 -0.2,0 l -0.3,0.2 c -0.2,0.101 -0.416,0.217 -0.649,0.351 C 40.05,33.717 40,33.767 40,33.8 c -0.033,0.033 -0.05,0.084 -0.05,0.15 0,0.066 0.05,0.2 0.15,0.4 0.067,0.101 0.134,0.2 0.2,0.301 0.033,0.033 0.117,0.183 0.25,0.449 0.134,0.267 0.184,0.417 0.15,0.45 -0.033,0.066 -0.117,0.117 -0.25,0.15 -0.334,0.1 -0.584,0.166 -0.75,0.2 -0.233,0.033 -0.45,0 -0.65,-0.101 -0.333,-0.133 -0.583,-0.233 -0.75,-0.3 -0.399,-0.233 -0.666,-0.384 -0.8,-0.45 l -0.45,-0.1 c -0.2,-0.066 -0.316,-0.117 -0.35,-0.15 -0.7,0.134 -1.384,0.184 -2.05,0.15 -0.967,0 -1.967,0.1 -3,0.3 -0.167,0.033 -0.267,0.066 -0.3,0.1 0,0.034 -0.05,0.117 -0.15,0.25 -0.467,0.9 -0.75,1.617 -0.85,2.15 -0.033,0.167 -0.05,0.333 -0.05,0.5 -1.033,-0.033 -2.167,-0.066 -3.4,-0.1 -0.133,-0.301 -0.283,-0.617 -0.45,-0.95 -0.1,-0.3 -0.25,-0.55 -0.45,-0.75 -0.067,-0.033 -0.133,-0.066 -0.2,-0.101 -0.1,0.034 -0.216,0.034 -0.35,0 l -1.9,-0.149 h -0.9 L 22.1,35.85 c -0.2,-0.1 -0.467,-0.233 -0.8,-0.399 0.1,0 0.2,-0.017 0.3,-0.05 0.3,-0.101 0.483,-0.167 0.55,-0.2 0.2,-0.066 0.367,-0.167 0.5,-0.3 l 0.1,-0.051 c 0.033,-0.033 0.05,-0.083 0.05,-0.149 -0.033,-0.167 -0.133,-0.316 -0.3,-0.45 -0.133,-0.167 -0.233,-0.283 -0.3,-0.35 -0.1,-0.101 -0.184,-0.217 -0.25,-0.351 0.566,0.4 1.716,0.033 3.45,-1.1 l -0.05,0.1 c 0,0.066 0.033,0.117 0.1,0.15 0.4,0.166 0.816,0.25 1.25,0.25 0.333,0 0.716,-0.066 1.15,-0.2 v 0.2 c 0,0.033 0.05,0.066 0.15,0.1 0.267,0.033 0.483,0.084 0.65,0.15 0.1,0.033 0.3,0.116 0.6,0.25 0.167,0.066 0.4,0.083 0.7,0.05 h 0.15 c -0.733,0.233 -1.317,0.5 -1.75,0.8 -0.567,0.367 -1,0.834 -1.3,1.4 -0.1,0.2 0.017,0.283 0.35,0.25 1.767,-0.3 3.117,-1.184 4.05,-2.65 0.667,-0.2 1.15,-0.35 1.45,-0.45 0.5,-0.199 0.883,-0.416 1.15,-0.649 0.167,-0.134 0.117,-0.2 -0.15,-0.2 -0.267,0 -0.45,0.033 -0.55,0.1 -0.4,0.334 -0.967,0.634 -1.7,0.9 0,-0.033 -0.033,-0.066 -0.1,-0.1 -0.066,-0.034 -0.117,-0.034 -0.15,0 -0.4,0 -0.867,-0.051 -1.4,-0.15 -0.867,-0.1 -1.3,-0.267 -1.3,-0.5 0,-0.066 -0.1,-0.1 -0.3,-0.1 -0.1,0.033 -0.2,0.066 -0.3,0.1 -1.467,0.467 -2.017,0.283 -1.65,-0.55 0.033,-0.134 -0.067,-0.184 -0.3,-0.15 -0.066,0 -0.133,0.017 -0.2,0.05 0.033,-0.1 0.117,-0.3 0.25,-0.6 0.133,-0.267 0.2,-0.5 0.2,-0.7 0.033,-0.133 0.017,-0.333 -0.05,-0.6 C 26.317,29.434 26.3,29.234 26.3,29.1 l -1.05,-0.6 1.45,-0.15 h 0.1 L 23.95,27.5 h -1.2 v -0.05 c -0.033,-0.033 -0.083,-0.066 -0.15,-0.101 -0.067,0 -0.133,-0.017 -0.2,-0.05 h -0.05 c -0.133,-0.066 -0.333,-0.083 -0.6,-0.05 -0.333,0 -0.6,0.017 -0.8,0.05 h -0.1 C 20.783,27.134 20.7,27 20.6,26.9 l 0.15,-0.25 c 0.067,-0.134 0.1,-0.301 0.1,-0.5 v -1 c -0.033,-0.234 -0.117,-0.367 -0.25,-0.4 h -0.15 c 0,-0.033 -0.034,-0.067 -0.1,-0.1 0.3,-0.3 0.55,-0.533 0.75,-0.7 0.433,-0.434 0.833,-0.767 1.2,-1 0.034,0.267 0.05,0.6 0.05,1 v 1 c 0.033,0.133 0.167,0.166 0.4,0.1 0.167,-0.033 0.467,-0.15 0.9,-0.35 0.367,-0.233 0.65,-0.35 0.85,-0.35 h 0.05 c -0.033,0.133 -0.1,0.3 -0.2,0.5 -0.267,0.466 -0.434,0.817 -0.5,1.05 -0.033,0.1 -0.033,0.183 0,0.25 0.2,0 0.55,0.05 1.05,0.149 0.333,0.066 0.85,0.184 1.55,0.351 0.7,0.133 1.233,0.233 1.6,0.3 0.267,0.1 0.45,0.133 0.55,0.1 0.133,-0.033 0.35,-0.133 0.65,-0.3 1.067,-0.467 1.833,-0.767 2.3,-0.9 l 0.85,-0.199 v -0.2 c 0.167,-0.033 0.3,-0.05 0.4,-0.05 0.267,0 0.45,-0.067 0.55,-0.2 0.033,-0.066 0.017,-0.117 -0.05,-0.15 C 33.233,25.017 33.167,25 33.1,25 c -0.167,0 -0.367,0.033 -0.6,0.1 h -0.1 c 0,-0.333 -0.017,-0.583 -0.05,-0.75 L 30.6,23.2 C 30.533,22.867 30.383,22.516 30.15,22.15 30.084,22.017 29.917,22 29.65,22.1 c -0.233,0.1 -0.333,0.2 -0.3,0.3 L 29.3,22.35 c -0.1,0 -0.333,0.05 -0.7,0.15 -0.067,-0.033 -0.184,-0.05 -0.35,-0.05 -0.267,0 -0.55,0.05 -0.85,0.15 -0.267,0.066 -0.367,0.167 -0.3,0.3 v 0.05 c -0.367,0.133 -0.733,0.3 -1.1,0.5 -0.367,0.2 -0.633,0.3 -0.8,0.3 h -0.15 c -0.066,0.033 -0.117,0.067 -0.15,0.1 -0.033,0.033 -0.066,0.066 -0.1,0.1 -0.233,0.033 -0.483,0.1 -0.75,0.2 -0.367,0.2 -0.65,0.333 -0.85,0.4 V 23.5 c 0,-0.4 -0.034,-0.75 -0.1,-1.05 -0.033,-0.067 -0.133,-0.1 -0.3,-0.1 -0.1,0 -0.2,0.033 -0.3,0.1 -0.4,0.133 -0.817,0.367 -1.25,0.7 -0.267,0.2 -0.617,0.517 -1.05,0.95 0.066,-0.467 0.05,-0.9 -0.05,-1.3 0,-0.1 -0.066,-0.133 -0.2,-0.1 0.1,-0.267 0.25,-0.567 0.45,-0.9 0.267,-0.4 0.45,-0.7 0.55,-0.9 0.133,-0.233 0.233,-0.417 0.3,-0.55 0.133,-0.2 0.217,-0.383 0.25,-0.55 l -1.25,0.05 c 0.267,-0.067 0.633,-0.184 1.1,-0.35 0.267,-0.1 0.517,-0.167 0.75,-0.2 h 0.1 c 0.133,0.034 0.283,-0.017 0.45,-0.15 h 0.3 c 0.133,-0.033 0.25,-0.05 0.35,-0.05 -0.033,0.2 -0.05,0.4 -0.05,0.6 0,0.167 0.133,0.233 0.4,0.2 0.267,-0.066 0.4,-0.167 0.4,-0.3 0,-0.5 0.15,-1 0.45,-1.5 -0.033,0.4 0,0.717 0.1,0.95 0.1,0.167 0.3,0.267 0.6,0.3 0.4,0 0.617,0.017 0.65,0.05 0.2,0.067 0.4,0.033 0.6,-0.1 0.033,-0.033 0.066,-0.083 0.1,-0.15 0.034,-0.066 0.017,-0.117 -0.05,-0.15 -0.067,-0.033 -0.283,-0.067 -0.65,-0.1 -0.267,0 -0.434,-0.066 -0.5,-0.2 -0.067,-0.167 -0.1,-0.434 -0.1,-0.8 0.067,-0.4 0.083,-0.667 0.05,-0.8 -0.033,-0.1 -0.15,-0.133 -0.35,-0.1 -0.167,0.033 -0.3,0.083 -0.4,0.15 -0.4,0.3 -0.716,0.667 -0.95,1.1 -0.067,0.167 -0.133,0.35 -0.2,0.55 l -5,-3.8 h -0.05 c -0.8,0.1 -1.383,0.167 -1.75,0.2 -0.7,0.1 -1.6,0.25 -2.7,0.45 -0.1,0.033 -0.183,0.067 -0.25,0.1 l -0.2,0.2 c -0.2,0.233 -0.517,0.583 -0.95,1.05 -0.4,0.4 -0.75,0.717 -1.05,0.95 l -0.25,0.1 c -0.1,0.067 -0.15,0.117 -0.15,0.15 0.133,0.1 0.333,0.216 0.6,0.35 0.133,0.067 0.35,0.167 0.65,0.3 0.1,0.066 0.317,0.167 0.65,0.3 0.267,0.133 0.466,0.25 0.6,0.35 0.034,0 0.083,0.05 0.15,0.15 0.033,0.033 0.066,0.067 0.1,0.1 0.1,0.033 0.25,0.067 0.45,0.1 0.1,0.033 0.233,0.05 0.4,0.05 0.1,0.033 0.2,0.05 0.3,0.05 0.7,0.1 1.583,0.167 2.65,0.2 -0.333,0.067 -0.8,0.184 -1.4,0.35 -0.633,0.167 -1.083,0.283 -1.35,0.35 -1.7,0.367 -3.167,0.65 -4.4,0.85 H 10.2 c -0.1,0.033 -0.184,0.033 -0.25,0 C 9.817,21.7 9.567,21.633 9.2,21.5 9,19.4 8.65,17.45 8.15,15.65 L 8.25,15.3 8.55,14.95 8.3,14.85 7.9,14.7 C 7.834,14.533 7.667,14.05 7.4,13.25 l 2.15,-0.3 c -0.267,-0.034 -0.6,-0.05 -1,-0.05 -0.133,0 -0.367,-0.05 -0.7,-0.15 -0.1,-0.033 -0.2,-0.067 -0.3,-0.1 l 0.35,0.1 2.2,-0.3 c 1.167,-0.233 2.333,-0.534 3.5,-0.9 -0.133,0.434 -0.233,0.833 -0.3,1.2 -0.033,0.167 0.083,0.233 0.35,0.2 0.267,-0.034 0.417,-0.117 0.45,-0.25 0.066,-0.434 0.183,-0.883 0.35,-1.35 0.167,-0.067 0.316,-0.167 0.45,-0.3 -0.1,0.034 -0.233,0.034 -0.4,0 0.133,-0.3 0.267,-0.6 0.4,-0.9 0.167,-0.433 0.55,-1.217 1.15,-2.35 0.067,-0.066 0,-0.117 -0.2,-0.15 -0.133,0 -0.233,0.017 -0.3,0.05 -0.667,0.333 -1.216,0.566 -1.65,0.7 -0.767,0.3 -1.316,0.333 -1.65,0.1 -0.1,-0.067 -0.267,-0.067 -0.5,0 -0.233,0.1 -0.3,0.183 -0.2,0.25 0.4,0.3 0.967,0.367 1.7,0.2 0.4,-0.067 1,-0.284 1.8,-0.65 -0.5,0.967 -0.85,1.684 -1.05,2.15 -0.067,0.167 -0.133,0.333 -0.2,0.5 C 13.734,10.916 13.667,10.9 13.6,10.9 12.767,10.7 11.9,10.467 11,10.2 9,9.633 7.383,9 6.15,8.3 6.083,7.6 6.133,6.9 6.3,6.2 6.767,5.967 7.25,5.766 7.75,5.6 7.917,5.533 8.083,5.467 8.25,5.4 L 6.75,4.75 C 6.783,4.683 6.883,4.45 7.05,4.05 7.617,4.017 7.95,3.984 8.05,3.95 8.217,3.95 8.667,3.9 9.4,3.8 9.9,3.734 10.55,3.65 11.35,3.55 11.483,3.517 11.633,3.484 11.8,3.45 H 11.5 L 8.4,3.15 7.7,3 c 0.633,-0.967 1.483,-1.7 2.55,-2.2 0.3,0.3 0.6,0.583 0.9,0.85 0.667,0.6 1.3,1.233 1.9,1.9 0.067,0.1 0.167,0.233 0.3,0.4 0.1,0.1 0.167,0.233 0.2,0.4 1.467,-0.533 2.383,-0.85 2.75,-0.95 1.067,-0.3 2.017,-0.417 2.85,-0.35 0.333,0.034 0.75,0.117 1.25,0.25 0.767,0.233 1.167,0.35 1.2,0.35 0,0.067 -0.033,0.267 -0.1,0.6 -0.067,0.233 -0.133,0.417 -0.2,0.55 -0.066,0.167 -0.2,0.383 -0.4,0.65 -0.2,0.267 -0.333,0.466 -0.4,0.6 0.133,0.067 0.35,0.184 0.65,0.35 0.267,0.1 0.483,0.2 0.65,0.3 0.5,0.333 1,0.7 1.5,1.1 0.3,0.267 0.6,0.5 0.9,0.7 0.133,0 0.3,-0.033 0.5,-0.1 C 24.833,8.367 25,8.3 25.2,8.2 25.567,8.033 26.467,7.617 27.9,6.95 29.033,6.45 29.967,6.067 30.7,5.8 30.8,5.767 30.9,5.734 31,5.7 31.033,5.666 31.083,5.583 31.15,5.45 31.25,5.183 31.3,4.583 31.3,3.65 V 2.8 l -1.7,-0.05 0.1,-0.1 c 0.2,-0.133 0.517,-0.25 0.95,-0.35 0.267,-0.033 0.6,-0.083 1,-0.15 0.167,-0.033 0.4,-0.1 0.7,-0.2 0.3,-0.067 0.55,-0.117 0.75,-0.15 0.167,0 0.417,-0.017 0.75,-0.05 0.266,0 0.483,0.083 0.65,0.25 0.167,0.2 0.267,0.383 0.3,0.55 0,0.133 -0.033,0.333 -0.1,0.6 0.3,0.033 0.8,0.05 1.5,0.05 0.1,0 0.333,0.017 0.7,0.05 0.333,0.033 0.583,0.05 0.75,0.05 0.066,-0.2 0.199,-0.367 0.399,-0.5 0.7,-0.667 1.7,-1.417 3,-2.25 h -0.7 c 0.4,-0.033 0.767,-0.033 1.101,0 h 0.2 l -0.95,0.4 c -0.733,0.4 -1.4,0.917 -2,1.55 -1.867,1.967 -2.516,4.6 -1.95,7.9 z M 7.85,36.9 C 7.483,36.866 7.117,36.816 6.75,36.75 6.917,36.417 7.083,36.066 7.25,35.7 H 7.8 c 0.6,0 1.217,-0.05 1.85,-0.15 z M 9.1,27.55 c 0.667,0 1.75,-0.1 3.25,-0.3 0.033,0.2 0.05,0.35 0.05,0.45 0.033,0.1 0.1,0.267 0.2,0.5 0.066,0.1 0.117,0.184 0.15,0.25 -0.033,0.1 -0.067,0.2 -0.1,0.3 -0.133,0.033 -0.267,0.05 -0.4,0.05 -0.3,0 -0.5,0.017 -0.6,0.05 -0.267,0.134 -0.4,0.233 -0.4,0.301 v 0.1 c 0.033,0.033 0.05,0.066 0.05,0.1 0.1,0.134 0.267,0.284 0.5,0.45 0.267,0.134 0.434,0.233 0.5,0.3 v 0.45 c -0.133,0.101 -0.333,0.267 -0.6,0.5 -0.133,0.134 -0.233,0.267 -0.3,0.4 -0.066,0.166 -0.033,0.316 0.1,0.45 0.067,0.033 0.183,0.083 0.35,0.149 0.1,0.033 0.233,0.066 0.4,0.101 0.087,0 0.162,0.008 0.225,0.024 L 12.5,32.2 c 0.033,0.2 0.083,0.383 0.15,0.55 -0.033,0.033 -0.05,0.066 -0.05,0.1 -0.1,0.167 -0.25,0.367 -0.45,0.601 -0.066,0.166 -0.083,0.366 -0.05,0.6 0,0.2 0.05,0.384 0.15,0.55 0.1,0.134 0.267,0.217 0.5,0.25 0.1,0.034 0.2,0.067 0.3,0.101 -0.2,0.133 -0.433,0.25 -0.7,0.35 -0.4,0.167 -0.783,0.25 -1.15,0.25 -0.3,-0.033 -0.467,-0.05 -0.5,-0.05 h -0.3 c -0.167,0 -0.3,-0.017 -0.4,-0.05 0.2,-0.033 0.383,-0.084 0.55,-0.15 C 9.917,35.236 9.383,35.169 8.95,35.102 8.517,35.033 8.2,34.967 8,34.9 L 7.6,34.7 C 8.267,32.967 8.733,30.95 9,28.65 v -0.2 c 0.333,-0.033 0.8,-0.084 1.4,-0.15 l -0.35,-0.1 c -0.033,0 -0.1,-0.017 -0.2,-0.05 C 9.65,28.083 9.4,27.983 9.1,27.849 Z M 12.35,27.2 C 12.117,27.134 11.833,27.05 11.5,26.95 11.267,26.884 11.017,26.8 10.75,26.7 L 9.2,26.2 C 9.233,25.433 9.25,24.717 9.25,24.05 L 9.3,24.1 c 0.034,0.033 0.167,0.167 0.4,0.4 l 1.2,0.2 c 0.633,0.133 1.583,0.35 2.85,0.649 v 0.15 c -0.033,0.1 -0.05,0.25 -0.05,0.45 -0.034,0.133 -0.017,0.383 0.05,0.75 H 13.7 c -0.133,-0.066 -0.317,-0.101 -0.55,-0.101 -0.233,-0.033 -0.417,-0.033 -0.55,0 -0.1,0.034 -0.167,0.101 -0.2,0.2 -0.033,0.066 -0.05,0.167 -0.05,0.3 z m 10.1,-15.3 c -0.2,0.667 -0.184,1.067 0.05,1.2 0.533,0.3 1.317,0.35 2.35,0.15 1.433,-0.267 2.233,-0.4 2.4,-0.4 0.167,0 0.317,-0.067 0.45,-0.2 0.1,-0.167 0.033,-0.25 -0.2,-0.25 -0.967,-0.033 -1.833,0.033 -2.6,0.2 -0.566,0.133 -0.917,0.2 -1.05,0.2 -0.533,0 -0.767,-0.2 -0.7,-0.6 0.033,-0.233 0.117,-0.5 0.25,-0.8 0.233,-0.5 0.35,-0.767 0.35,-0.8 0.067,-0.167 -0.017,-0.25 -0.25,-0.25 -0.233,0 -0.383,0.05 -0.45,0.15 -0.233,0.333 -0.483,0.617 -0.75,0.85 -0.4,0.3 -0.583,0.25 -0.55,-0.15 0,-0.167 -0.1,-0.25 -0.3,-0.25 -0.2,0.033 -0.35,0.083 -0.45,0.15 -0.167,0.2 -0.367,0.467 -0.6,0.8 l -0.1,-0.05 c -0.066,0 -0.233,-0.05 -0.5,-0.15 -0.233,-0.067 -0.417,-0.083 -0.55,-0.05 -0.533,0.133 -0.817,0.05 -0.85,-0.25 0.567,-0.6 0.983,-1.333 1.25,-2.2 0.033,-0.167 -0.066,-0.233 -0.3,-0.2 -0.234,0.033 -0.383,0.1 -0.45,0.2 -0.433,0.566 -0.767,1.15 -1,1.75 l -0.25,0.35 c -0.5,0.6 -0.816,0.917 -0.95,0.95 0.3,0.033 0.617,-0.033 0.95,-0.2 l -0.1,0.35 c 0,0.1 0.067,0.167 0.2,0.2 0.1,0.033 0.2,0.033 0.3,0 0.767,-0.2 1.233,-0.267 1.4,-0.2 0.267,0.133 0.3,0.617 0.1,1.45 -0.033,0.2 0.083,0.283 0.35,0.25 0.267,-0.033 0.417,-0.133 0.45,-0.3 l 0.15,-0.45 c 0.1,-0.467 0.3,-0.9 0.6,-1.3 h 0.05 c 0.533,0.067 0.967,0.017 1.3,-0.15 z m 6,6.5 c -0.167,0.067 -0.333,0.2 -0.5,0.4 l -0.2,0.3 c -0.033,0.033 -0.049,0.066 -0.05,0.1 0,-0.101 -0.034,-0.201 -0.1,-0.3 -0.067,-0.066 -0.2,-0.066 -0.4,0 -0.167,0.033 -0.284,0.083 -0.35,0.15 -0.133,0.167 -0.233,0.383 -0.3,0.65 0,0.133 0.117,0.183 0.35,0.15 0.267,-0.033 0.417,-0.117 0.45,-0.25 0.333,0.133 0.65,0.05 0.95,-0.25 l 0.3,-0.4 c 0.133,-0.167 0.267,-0.217 0.4,-0.15 0.133,0.067 0.167,0.217 0.1,0.45 -0.067,0.233 -0.3,0.567 -0.7,1 -0.033,0.067 -0.033,0.117 0,0.15 0.033,0.033 0.067,0.05 0.1,0.05 0.5,0.066 0.917,0 1.25,-0.2 0.233,-0.167 0.5,-0.45 0.8,-0.85 0.267,0.1 0.55,0.15 0.85,0.15 0.1,0.034 0.4,0.05 0.9,0.05 0.167,0 0.317,-0.067 0.45,-0.2 0.133,-0.133 0.083,-0.2 -0.15,-0.2 h -0.9 c -0.333,-0.067 -0.617,-0.184 -0.85,-0.35 -0.1,-0.067 -0.233,-0.083 -0.4,-0.05 -0.167,0.034 -0.284,0.1 -0.35,0.2 -0.2,0.233 -0.35,0.467 -0.45,0.7 0,-0.067 0.017,-0.133 0.05,-0.2 0.3,-0.5 0.283,-0.867 -0.05,-1.1 -0.133,-0.1 -0.333,-0.15 -0.6,-0.15 -0.233,0 -0.433,0.05 -0.6,0.15 z M 14.7,12.35 c 0.066,0.167 0.216,0.233 0.45,0.2 0.4,-0.1 0.75,-0.233 1.05,-0.4 0.2,0.067 0.333,0.1 0.4,0.1 -0.033,-0.033 -0.017,-0.117 0.05,-0.25 0.067,-0.1 0.133,-0.2 0.2,-0.3 0.1,-0.133 0.033,-0.217 -0.2,-0.25 -0.233,0 -0.4,0.033 -0.5,0.1 l -1.1,0.5 c -0.267,0.067 -0.383,0.167 -0.35,0.3 z M 6.35,9.85 C 6.283,9.717 6.25,9.583 6.25,9.45 6.217,9.35 6.2,9.233 6.2,9.1 6.233,9.333 6.283,9.583 6.35,9.85 Z m 9.25,15.8 c -0.033,-0.034 -0.067,-0.067 -0.1,-0.101 h 0.1 z m 2.85,-0.4 c 0.066,-0.134 0.117,-0.233 0.15,-0.3 0.033,-0.034 0.083,-0.083 0.15,-0.15 0.167,-0.066 0.267,-0.15 0.3,-0.25 l 0.3,-0.6 c 0,0.233 -0.033,0.5 -0.1,0.8 h -0.1 c -0.167,0.067 -0.316,0.167 -0.45,0.3 -0.067,0.033 -0.15,0.1 -0.25,0.2 z m 12.75,5.2 0.05,-0.101 c 0.033,-0.066 0,-0.1 -0.1,-0.1 H 30.9 c -0.267,0.066 -0.417,0.15 -0.45,0.25 -0.034,0.066 -0.083,0.15 -0.15,0.25 -0.033,0.066 -0.05,0.15 -0.05,0.25 l 0.05,0.05 c 0.467,0.2 0.867,0.033 1.2,-0.5 0.067,-0.099 -0.033,-0.132 -0.3,-0.099 z M 28.45,30.2 c -0.133,0.066 -0.217,0.184 -0.25,0.35 -0.034,0.101 -0.034,0.184 0,0.25 0.133,0.134 0.3,0.217 0.5,0.25 0.1,0 0.267,-0.017 0.5,-0.05 0.2,-0.033 0.333,-0.134 0.4,-0.3 0.066,-0.2 -0.017,-0.316 -0.25,-0.351 0.033,-0.1 0,-0.183 -0.1,-0.25 -0.1,-0.1 -0.233,-0.116 -0.4,-0.05 -0.2,0.067 -0.333,0.118 -0.4,0.151 z m -0.35,5.05 c 0.333,-0.667 1.117,-1.2 2.35,-1.6 0.133,0.267 -0.3,0.733 -1.3,1.399 -1,0.668 -1.35,0.734 -1.05,0.201 z"
     fill="url(#m)"
     id="path16"
     style="fill:url(#m);stroke-width:0.0409074" /><path
     d="M 6.75,4.75 8.25,5.4 C 8.083,5.467 7.917,5.533 7.75,5.6 7.25,5.4 6.933,5.2 6.8,5 Z M 9.4,3.8 7.75,3.55 C 7.683,3.517 7.65,3.417 7.65,3.25 L 7.7,3 l 0.7,0.15 3.1,0.3 -0.15,0.1 C 10.55,3.65 9.9,3.733 9.4,3.8 Z m -1.1,11.05 0.25,0.1 -0.3,0.35 C 8.217,15.133 8.233,14.983 8.3,14.85 Z m -0.9,-1.6 c -0.1,-0.133 0.05,-0.3 0.45,-0.5 0.333,0.1 0.566,0.15 0.7,0.15 0.4,0 0.733,0.017 1,0.05 z m 32.25,8.95 h 1.15 l 0.15,0.65 c -1.2,0.5 -2.101,0.883 -2.7,1.15 -0.5,0.233 -0.95,0.45 -1.35,0.65 -0.733,0.367 -1.233,0.534 -1.5,0.5 -0.134,0 -0.384,-0.134 -0.75,-0.4 -0.367,-0.233 -0.601,-0.383 -0.7,-0.45 -0.4,-0.2 -0.75,-0.383 -1.05,-0.55 -0.633,-0.333 -0.95,-0.567 -0.95,-0.7 l 1.15,-0.2 c 0.4,-0.033 0.633,-0.05 0.7,-0.05 l 2.75,-0.15 c 1.033,-0.133 1.566,-0.283 1.601,-0.45 z M 10,35.45 9.65,35.5 v 0.05 C 9.017,35.65 8.4,35.7 7.8,35.7 H 7.25 L 7.7,35.35 8.3,35.3 c 0.2,-0.033 0.417,-0.1 0.65,-0.2 0.433,0.067 0.966,0.134 1.6,0.2 -0.167,0.066 -0.35,0.117 -0.55,0.15 z m 2.35,-8.2 c -1.5,0.2 -2.583,0.3 -3.25,0.3 l 0.6,-0.399 1.2,-0.101 c 0.133,-0.033 0.333,-0.066 0.6,-0.1 0.333,0.1 0.617,0.184 0.85,0.25 z m -2.5,0.9 c 0.1,0.033 0.167,0.05 0.2,0.05 l 0.35,0.1 C 9.8,28.366 9.334,28.417 9,28.45 v 0.2 C 8.933,28.549 8.95,28.45 9.05,28.349 L 9.4,28.2 Z m 4.25,-5.7 C 14.033,22.25 14.017,22.1 14.05,22 c 0.067,-0.133 0.233,-0.267 0.5,-0.4 0.267,-0.1 0.434,-0.167 0.5,-0.2 0.9,-0.467 1.633,-0.8 2.2,-1 l 3,0.05 c -0.2,0.333 -0.483,0.683 -0.85,1.05 -0.233,0.2 -0.566,0.5 -1,0.9 -0.333,0.3 -0.65,0.633 -0.95,1 -0.034,-0.133 -0.067,-0.3 -0.1,-0.5 0,-0.066 -0.1,-0.083 -0.3,-0.05 -0.167,0.033 -0.283,0.083 -0.35,0.15 -0.333,0.167 -0.684,0.45 -1.05,0.85 0.1,-0.434 0.15,-0.783 0.15,-1.05 0.034,-0.4 -0.033,-0.75 -0.2,-1.05 -0.033,-0.067 -0.117,-0.1 -0.25,-0.1 -0.167,0.067 -0.267,0.1 -0.3,0.1 -0.4,0.133 -0.717,0.367 -0.95,0.7 z m 0.1,0.15 h 0.2 c 0.267,-0.033 0.434,-0.1 0.5,-0.2 0.067,0.367 0.05,0.817 -0.05,1.35 -0.033,0 -0.05,-0.017 -0.05,-0.05 -0.133,-0.233 -0.25,-0.417 -0.35,-0.55 -0.1,-0.233 -0.183,-0.417 -0.25,-0.55 z m 2,1.45 c 0.2,-0.267 0.333,-0.433 0.4,-0.5 0.033,0.1 0.066,0.184 0.1,0.25 -0.067,0 -0.117,0.017 -0.15,0.05 -0.066,0.033 -0.133,0.1 -0.2,0.2 z M 14.85,36.8 v 0.3 H 14.7 c 0.033,-0.133 0.083,-0.234 0.15,-0.3 z m 6.2,1.1 0.15,-1.95 c 0.167,0.066 0.35,0.149 0.55,0.25 0.167,0.066 0.4,0.184 0.7,0.35 0.1,0.033 0.25,0.117 0.45,0.25 0.2,0.101 0.367,0.167 0.5,0.2 0.067,0.333 0.067,0.667 0,1 -0.8,-0.033 -1.583,-0.066 -2.35,-0.1 z"
     fill="#c9be9b"
     id="path18"
     style="stroke-width:0.00154865" /><path
     d="m 33.1,22.85 -1.15,0.2 c 0,0.133 0.316,0.367 0.95,0.7 0.3,0.167 0.65,0.35 1.05,0.55 0.1,0.067 0.333,0.217 0.7,0.45 0.366,0.267 0.616,0.4 0.75,0.4 0.267,0.033 0.767,-0.134 1.5,-0.5 0.399,-0.2 0.85,-0.417 1.35,-0.65 0.6,-0.267 1.5,-0.65 2.7,-1.15 0.166,0.733 0.3,1.467 0.399,2.2 L 38.2,27.2 c -0.101,0.166 -0.233,0.283 -0.4,0.35 -0.5,-0.434 -1.283,-0.8 -2.35,-1.1 C 35.217,26.417 35.066,26.366 35,26.3 34.934,26.2 34.9,26.116 34.9,26.05 34.833,25.917 34.766,25.8 34.7,25.7 34.533,25.533 34.316,25.25 34.05,24.85 33.784,24.45 33.334,24.067 32.7,23.7 c -0.733,-0.333 -1.267,-0.6 -1.6,-0.8 0.2,-0.033 0.867,-0.05 2,-0.05 z m 7.65,-0.65 h -1.1 c 0.433,-0.067 0.767,-0.1 1,-0.1 z"
     fill="#d9cfb0"
     id="path20"
     style="stroke-width:0.00154865" /><path
     d="m 21.2,35.95 v -0.5 h 0.1 c 0.333,0.166 0.6,0.3 0.8,0.399 l 0.55,0.351 h 0.9 l 1.9,0.149 c 0.133,0.034 0.25,0.034 0.35,0 0.067,0.034 0.133,0.067 0.2,0.101 0.2,0.2 0.35,0.45 0.45,0.75 0.167,0.333 0.316,0.649 0.45,0.95 -0.566,-0.034 -1.15,-0.051 -1.75,-0.051 -0.6,-0.033 -1.183,-0.066 -1.75,-0.1 0.067,-0.333 0.067,-0.667 0,-1 -0.133,-0.033 -0.3,-0.1 -0.5,-0.2 -0.2,-0.133 -0.35,-0.217 -0.45,-0.25 -0.3,-0.166 -0.534,-0.283 -0.7,-0.35 C 21.55,36.1 21.367,36.017 21.2,35.95 Z m 20.1,-2.85 -1.25,6.5 c -0.166,0.567 -0.35,1.084 -0.55,1.551 l -1.25,2.1 c -0.066,0.033 -0.134,0.066 -0.2,0.1 -0.267,-0.033 -0.434,0.017 -0.5,0.15 -0.467,0.066 -1.017,0.017 -1.649,-0.15 -1.134,-0.333 -2.05,-0.883 -2.75,-1.649 -0.566,-0.634 -0.917,-1.384 -1.05,-2.25 l -0.05,-1.15 c -0.566,0 -1.15,-0.017 -1.75,-0.05 0,-0.167 0.017,-0.333 0.05,-0.5 0.1,-0.533 0.383,-1.25 0.85,-2.15 0.1,-0.133 0.15,-0.216 0.15,-0.25 0.033,-0.033 0.133,-0.066 0.3,-0.1 1.033,-0.2 2.033,-0.3 3,-0.3 0.666,0.033 1.35,-0.017 2.05,-0.15 0.033,0.033 0.149,0.084 0.35,0.15 l 0.45,0.1 c 0.134,0.066 0.4,0.217 0.8,0.45 0.167,0.066 0.417,0.167 0.75,0.3 0.2,0.101 0.417,0.134 0.65,0.101 0.166,-0.034 0.416,-0.101 0.75,-0.2 0.133,-0.033 0.217,-0.084 0.25,-0.15 0.033,-0.033 -0.017,-0.184 -0.15,-0.45 -0.133,-0.267 -0.217,-0.416 -0.25,-0.449 -0.066,-0.101 -0.133,-0.2 -0.2,-0.301 C 40,34.15 39.95,34.017 39.95,33.95 c 0,-0.067 0.017,-0.117 0.05,-0.15 0,-0.033 0.05,-0.083 0.15,-0.149 C 40.384,33.517 40.6,33.4 40.8,33.3 l 0.3,-0.2 c 0.034,-0.034 0.1,-0.034 0.2,0 z M 10.9,37.25 C 9.867,37.15 8.85,37.033 7.85,36.9 l 1.8,-1.351 V 35.5 L 10,35.45 c 0.1,0.033 0.233,0.05 0.4,0.05 h 0.3 c 0.033,0 0.2,0.017 0.5,0.05 0.367,0 0.75,-0.083 1.15,-0.25 0.267,-0.1 0.5,-0.217 0.7,-0.35 h 0.1 c 0.133,0 0.317,-0.033 0.55,-0.101 0.033,0.067 0.066,0.117 0.1,0.15 v 0.15 c -0.066,0.199 -0.1,0.333 -0.1,0.399 0,0.066 0.017,0.267 0.05,0.601 v 0.5 c 0.033,0.033 0.067,0.05 0.1,0.05 0.033,0.033 0.083,0.05 0.15,0.05 0.033,0.033 0.067,0.05 0.1,0.05 0.033,0 0.083,0 0.15,0 0.2,0.033 0.4,0.017 0.6,-0.05 v 0.05 c -0.067,0.066 -0.117,0.167 -0.15,0.3 -1,-0.1 -1.617,-0.166 -1.85,-0.199 -0.5,-0.101 -0.917,-0.101 -1.25,0 -0.3,0.033 -0.517,0.133 -0.65,0.3 -0.033,0 -0.05,0.017 -0.05,0.05 z m 20.65,1.25 -0.1,0.6 c -0.034,0.567 0.017,1.117 0.15,1.65 0.1,0.267 0.2,0.517 0.3,0.75 C 31.6,41 31.417,40.45 31.35,39.85 L 31.4,38.6 Z"
     fill="#d4c8a3"
     id="path22"
     style="stroke-width:0.00154865" /><path
     d="M 10.25,0.8 C 10.417,0.734 10.6,0.667 10.8,0.6 10.967,0.533 11.133,0.467 11.3,0.4 h 0.15 l 1.2,-0.25 C 12.783,0.117 12.917,0.1 13.05,0.1 13.183,0.067 13.3,0.05 13.4,0.05 h 0.45 l -0.7,0.1 0.35,0.15 0.75,0.6 c 0.5,0.434 0.817,0.684 0.95,0.75 0.133,0.067 0.5,0.133 1.1,0.2 0.534,0.066 0.95,0.1 1.25,0.1 0.3,0 0.917,-0.034 1.85,-0.1 1,-0.033 1.583,-0.083 1.75,-0.15 0.2,-0.034 0.783,-0.083 1.75,-0.15 0.967,-0.1 1.583,-0.15 1.85,-0.15 0.367,0 1.05,0.067 2.05,0.2 l 0.8,0.15 c 0.6,0.1 0.983,0.133 1.15,0.1 0.267,-0.033 1.017,-0.167 2.25,-0.4 0.033,0 0.7,-0.05 2,-0.15 1.333,-0.133 2.184,-0.2 2.55,-0.2 0.601,0 2.15,-0.184 4.65,-0.55 h 0.85 c -1.3,0.833 -2.3,1.583 -3,2.25 -0.2,0.133 -0.333,0.3 -0.399,0.5 -0.167,0 -0.417,-0.017 -0.75,-0.05 C 36.533,3.217 36.3,3.2 36.2,3.2 35.5,3.2 35,3.183 34.7,3.15 34.766,2.883 34.8,2.683 34.8,2.55 34.767,2.383 34.667,2.2 34.5,2 34.333,1.833 34.116,1.75 33.85,1.75 33.517,1.783 33.267,1.8 33.1,1.8 c -0.2,0.034 -0.45,0.083 -0.75,0.15 -0.3,0.1 -0.533,0.167 -0.7,0.2 -0.4,0.067 -0.733,0.117 -1,0.15 -0.433,0.1 -0.75,0.217 -0.95,0.35 l -0.1,0.1 -4.35,-0.2 C 24.283,3.017 23.1,3.3 21.7,3.4 L 21.6,3.65 C 21.567,3.65 21.166,3.533 20.4,3.3 19.9,3.167 19.483,3.084 19.15,3.05 18.317,2.983 17.367,3.1 16.3,3.4 15.933,3.5 15.017,3.817 13.55,4.35 13.517,4.183 13.45,4.05 13.35,3.95 13.217,3.783 13.117,3.65 13.05,3.55 12.45,2.883 11.817,2.25 11.15,1.65 10.85,1.383 10.55,1.1 10.25,0.8 Z m 5.9,-0.75 c 1.367,0.1 4.184,0.284 8.45,0.55 3.9,0.233 6.7,0.3 8.4,0.2 0.833,-0.066 1.684,-0.117 2.55,-0.15 l 3.5,-0.1 H 39.6 C 34.467,0.817 31.034,0.917 29.3,0.85 26.334,0.75 23.35,0.6 20.35,0.4 18.483,0.267 17.083,0.15 16.15,0.05 Z"
     fill="#f5ecd3"
     id="path24"
     style="stroke-width:0.00154865" /><path
     d="M 40.35,0.55 H 40.2 C 37.7,0.917 36.15,1.1 35.55,1.1 35.184,1.1 34.333,1.166 33,1.3 31.7,1.4 31.033,1.45 31,1.45 29.767,1.683 29.017,1.817 28.75,1.85 28.583,1.883 28.2,1.85 27.6,1.75 L 26.8,1.6 C 25.8,1.467 25.117,1.4 24.75,1.4 24.483,1.4 23.867,1.45 22.9,1.55 21.933,1.617 21.35,1.667 21.15,1.7 20.983,1.766 20.4,1.817 19.4,1.85 18.467,1.916 17.85,1.95 17.55,1.95 17.25,1.95 16.834,1.916 16.3,1.85 15.7,1.783 15.334,1.717 15.2,1.65 15.067,1.584 14.75,1.334 14.25,0.9 L 13.5,0.3 13.15,0.15 l 0.7,-0.1 h 0.2 c 0.667,-0.066 1.233,-0.083 1.7,-0.05 0.1,0.033 0.217,0.05 0.35,0.05 h 0.05 c 0.934,0.1 2.333,0.217 4.2,0.35 3,0.2 5.983,0.35 8.95,0.45 1.733,0.066 5.167,-0.033 10.3,-0.3 h 0.2 c 0.2,0 0.417,-0.017 0.65,-0.05 z"
     fill="#fff6db"
     id="path26"
     style="stroke-width:0.00154865" /><path
     d="M 21.6,3.65 21.7,3.4 c 1.4,-0.1 2.583,-0.383 3.55,-0.85 l 4.35,0.2 1.7,0.05 v 0.85 c 0,0.934 -0.05,1.533 -0.15,1.8 C 31.083,5.583 31.033,5.667 31,5.7 30.9,5.733 30.8,5.766 30.7,5.8 29.967,6.067 29.033,6.45 27.9,6.95 26.467,7.617 25.567,8.033 25.2,8.2 25,8.3 24.833,8.367 24.7,8.4 24.5,8.467 24.333,8.5 24.2,8.5 23.9,8.3 23.6,8.067 23.3,7.8 22.8,7.4 22.3,7.033 21.8,6.7 21.633,6.6 21.417,6.5 21.15,6.4 20.85,6.233 20.633,6.117 20.5,6.05 20.567,5.917 20.7,5.717 20.9,5.45 21.1,5.183 21.233,4.967 21.3,4.8 21.367,4.667 21.433,4.484 21.5,4.25 21.567,3.917 21.6,3.717 21.6,3.65 Z"
     fill="#ede7ce"
     id="path28"
     style="stroke-width:0.00154865" /><path
     d="m 14.65,19.9 c -0.167,0 -0.3,-0.017 -0.4,-0.05 -0.2,-0.033 -0.35,-0.067 -0.45,-0.1 -0.033,-0.033 -0.066,-0.067 -0.1,-0.1 -0.067,-0.1 -0.117,-0.15 -0.15,-0.15 -0.133,-0.1 -0.333,-0.217 -0.6,-0.35 -0.333,-0.133 -0.55,-0.233 -0.65,-0.3 -0.3,-0.133 -0.517,-0.233 -0.65,-0.3 -0.267,-0.133 -0.467,-0.25 -0.6,-0.35 0,-0.034 0.05,-0.083 0.15,-0.15 l 0.25,-0.1 c 0.3,-0.233 0.65,-0.55 1.05,-0.95 0.433,-0.467 0.75,-0.817 0.95,-1.05 l 0.2,-0.2 c 0.067,-0.033 0.15,-0.067 0.25,-0.1 1.1,-0.2 2,-0.35 2.7,-0.45 0.367,-0.034 0.95,-0.1 1.75,-0.2 h 0.05 l 5,3.8 c -0.033,0.1 -0.066,0.2 -0.1,0.3 -0.1,0 -0.216,0.017 -0.35,0.05 h -0.3 c 0.033,-10e-4 0.05,-0.018 0.05,-0.05 0.2,-0.133 0.183,-0.233 -0.05,-0.3 -0.033,0 -0.417,-0.05 -1.15,-0.15 -0.467,-0.066 -0.817,-0.183 -1.05,-0.35 -0.067,-0.066 -0.184,-0.083 -0.35,-0.05 -0.1,0 -0.2,0.05 -0.3,0.15 -0.1,0.1 -0.3,0.167 -0.6,0.2 -0.034,0 -0.284,0.033 -0.75,0.1 -0.067,-0.434 -0.117,-0.75 -0.15,-0.95 -0.033,-0.133 -0.15,-0.183 -0.35,-0.15 -0.2,0.033 -0.333,0.083 -0.4,0.15 -0.1,0.033 -0.167,0.05 -0.2,0.05 0.2,-0.367 0.316,-0.667 0.35,-0.9 0.033,-0.167 -0.067,-0.25 -0.3,-0.25 -0.2,0.033 -0.35,0.083 -0.45,0.15 -0.367,0.367 -0.5,0.75 -0.4,1.15 -0.233,0.4 -0.517,0.783 -0.85,1.15 -0.833,0.8 -1.1,0.3 -0.8,-1.5 0.167,-0.434 0.434,-0.783 0.8,-1.05 0.433,-0.367 0.85,-0.466 1.25,-0.3 0.133,0.033 0.3,-0.017 0.5,-0.15 0.2,-0.133 0.183,-0.25 -0.05,-0.35 -0.8,-0.3 -1.683,-0.033 -2.65,0.8 -1,0.867 -1.283,1.733 -0.85,2.6 0.2,0.4 0.45,0.65 0.75,0.75 z m 0.3,0.05 c 0.167,0 0.316,-0.034 0.45,-0.1 0.533,-0.2 1.067,-0.667 1.6,-1.4 0.167,0.066 0.35,0.066 0.55,0 0.034,0.233 0.067,0.466 0.1,0.7 0,0.067 0.067,0.117 0.2,0.15 h 0.3 c 0.2,-0.1 0.533,-0.167 1,-0.2 0.4,-0.033 0.7,-0.117 0.9,-0.25 0.267,0.133 0.617,0.233 1.05,0.3 0.467,0.067 0.8,0.117 1,0.15 -0.233,0.034 -0.483,0.1 -0.75,0.2 -0.467,0.167 -0.833,0.283 -1.1,0.35 -0.467,0.167 -0.75,0.25 -0.85,0.25 -0.133,0.066 -0.233,0.1 -0.3,0.1 l -1.5,-0.05 c -1.067,-0.033 -1.95,-0.1 -2.65,-0.2 z m 22.15,-7.85 0.051,0.1 0.8,2.4 c 0.033,0.066 0.066,0.133 0.1,0.2 0.134,0.4 0.467,1.217 1,2.45 H 38.8 c -0.767,0.1 -1.684,0.483 -2.75,1.15 -0.1,0.067 -0.283,0.184 -0.55,0.35 -0.2,0.167 -0.4,0.233 -0.6,0.2 H 33.2 C 32.967,18.983 32.767,19 32.6,19 32.233,19 32,18.983 31.9,18.95 c 0.033,-0.133 0,-0.233 -0.1,-0.3 -0.367,-0.467 -0.7,-0.867 -1,-1.2 -0.5,-0.534 -0.867,-0.95 -1.1,-1.25 -0.434,-0.5 -0.684,-0.967 -0.75,-1.4 0.033,0 0.1,-0.066 0.2,-0.2 0.367,-0.267 0.684,-0.567 0.95,-0.9 0.267,-0.267 0.566,-0.617 0.9,-1.05 0.333,-0.5 0.6,-0.867 0.8,-1.1 l 2.25,0.3 c 1.433,0.167 2.45,0.25 3.05,0.25 z"
     fill="#f0e7cc"
     id="path30"
     style="stroke-width:0.00154865" /><path
     d="m 13.6,11.55 c 0.066,-0.2 0.133,-0.4 0.2,-0.6 0.067,-0.167 0.133,-0.333 0.2,-0.5 0.2,-0.467 0.55,-1.184 1.05,-2.15 -0.8,0.367 -1.4,0.583 -1.8,0.65 -0.733,0.167 -1.3,0.1 -1.7,-0.2 -0.1,-0.067 -0.033,-0.15 0.2,-0.25 0.233,-0.067 0.4,-0.067 0.5,0 0.333,0.233 0.883,0.2 1.65,-0.1 0.434,-0.133 0.983,-0.367 1.65,-0.7 0.067,-0.034 0.167,-0.05 0.3,-0.05 0.2,0.033 0.267,0.083 0.2,0.15 -0.6,1.133 -0.983,1.917 -1.15,2.35 -0.133,0.3 -0.267,0.6 -0.4,0.9 -0.033,0.1 -0.05,0.2 -0.05,0.3 -0.167,0.467 -0.284,0.917 -0.35,1.35 -0.033,0.133 -0.184,0.216 -0.45,0.25 -0.267,0.033 -0.383,-0.034 -0.35,-0.2 0.067,-0.367 0.167,-0.767 0.3,-1.2 z m 1.35,8.4 c -0.1,0 -0.2,-0.017 -0.3,-0.05 -0.3,-0.1 -0.55,-0.35 -0.75,-0.75 -0.433,-0.867 -0.15,-1.733 0.85,-2.6 0.967,-0.833 1.85,-1.1 2.65,-0.8 0.233,0.1 0.25,0.217 0.05,0.35 -0.2,0.133 -0.367,0.183 -0.5,0.15 -0.4,-0.167 -0.817,-0.067 -1.25,0.3 -0.367,0.267 -0.633,0.617 -0.8,1.05 -0.3,1.8 -0.033,2.3 0.8,1.5 0.333,-0.367 0.617,-0.75 0.85,-1.15 -0.1,-0.4 0.034,-0.784 0.4,-1.15 0.1,-0.066 0.25,-0.117 0.45,-0.15 0.233,0 0.333,0.083 0.3,0.25 -0.034,0.233 -0.15,0.533 -0.35,0.9 0.033,0 0.1,-0.017 0.2,-0.05 0.067,-0.067 0.2,-0.117 0.4,-0.15 0.2,-0.033 0.316,0.017 0.35,0.15 0.034,0.2 0.083,0.517 0.15,0.95 0.466,-0.067 0.716,-0.1 0.75,-0.1 0.3,-0.033 0.5,-0.1 0.6,-0.2 0.1,-0.1 0.2,-0.15 0.3,-0.15 0.167,-0.033 0.283,-0.017 0.35,0.05 0.233,0.167 0.583,0.284 1.05,0.35 0.733,0.1 1.117,0.15 1.15,0.15 0.233,0.067 0.25,0.167 0.05,0.3 0,0.032 -0.017,0.049 -0.05,0.05 -0.167,0.133 -0.316,0.184 -0.45,0.15 h -0.1 c -0.2,-0.033 -0.533,-0.083 -1,-0.15 -0.434,-0.066 -0.783,-0.167 -1.05,-0.3 -0.2,0.133 -0.5,0.217 -0.9,0.25 -0.467,0.033 -0.8,0.1 -1,0.2 h -0.3 c -0.133,-0.033 -0.2,-0.083 -0.2,-0.15 -0.033,-0.233 -0.066,-0.467 -0.1,-0.7 -0.2,0.066 -0.383,0.066 -0.55,0 -0.533,0.733 -1.067,1.2 -1.6,1.4 -0.133,0.067 -0.283,0.1 -0.45,0.1 z M 23.3,19.1 c 0.034,-0.1 0.067,-0.2 0.1,-0.3 0.067,-0.2 0.133,-0.383 0.2,-0.55 0.233,-0.433 0.55,-0.8 0.95,-1.1 0.1,-0.066 0.233,-0.117 0.4,-0.15 0.2,-0.033 0.316,0 0.35,0.1 0.034,0.133 0.017,0.4 -0.05,0.8 0,0.367 0.033,0.633 0.1,0.8 0.066,0.133 0.233,0.2 0.5,0.2 0.367,0.033 0.583,0.067 0.65,0.1 0.067,0.033 0.083,0.083 0.05,0.15 -0.033,0.067 -0.066,0.117 -0.1,0.15 -0.2,0.133 -0.4,0.167 -0.6,0.1 -0.033,-0.033 -0.25,-0.05 -0.65,-0.05 -0.3,-0.033 -0.5,-0.133 -0.6,-0.3 -0.1,-0.233 -0.133,-0.55 -0.1,-0.95 -0.3,0.5 -0.45,1 -0.45,1.5 0,0.133 -0.133,0.233 -0.4,0.3 -0.267,0.033 -0.4,-0.033 -0.4,-0.2 0,-0.2 0.017,-0.4 0.05,-0.6 z m -8.5,6 c -0.066,-0.033 -0.15,-0.05 -0.25,-0.05 0.133,-0.566 0.233,-1 0.3,-1.3 0.1,-0.533 0.117,-0.983 0.05,-1.35 -0.066,0.1 -0.233,0.167 -0.5,0.2 h -0.2 c -0.1,0 -0.133,-0.017 -0.1,-0.05 v -0.1 c 0.233,-0.333 0.55,-0.567 0.95,-0.7 0.034,0 0.133,-0.033 0.3,-0.1 0.133,0 0.217,0.033 0.25,0.1 0.167,0.3 0.233,0.65 0.2,1.05 0,0.267 -0.05,0.617 -0.15,1.05 0.367,-0.4 0.717,-0.684 1.05,-0.85 0.066,-0.067 0.183,-0.117 0.35,-0.15 0.2,-0.033 0.3,-0.017 0.3,0.05 0.033,0.2 0.066,0.367 0.1,0.5 0.066,0.167 0.117,0.283 0.15,0.35 0.133,0.267 0.367,0.367 0.7,0.3 h 0.2 c 0.233,-0.433 0.517,-0.8 0.85,-1.1 0.066,-0.1 0.217,-0.184 0.45,-0.25 h 0.15 c 0.133,-0.034 0.2,0 0.2,0.1 0.1,0.4 0.117,0.833 0.05,1.3 0.433,-0.434 0.783,-0.75 1.05,-0.95 0.433,-0.333 0.85,-0.566 1.25,-0.7 0.1,-0.067 0.2,-0.1 0.3,-0.1 0.167,0 0.267,0.033 0.3,0.1 0.066,0.3 0.1,0.65 0.1,1.05 v 1.05 c 0.2,-0.066 0.483,-0.2 0.85,-0.4 0.267,-0.1 0.517,-0.167 0.75,-0.2 H 25 c 0.2,0 0.2,0.083 0,0.25 -0.167,0.1 -0.317,0.15 -0.45,0.15 H 24.5 c -0.2,0 -0.483,0.117 -0.85,0.35 -0.433,0.2 -0.733,0.316 -0.9,0.35 -0.233,0.066 -0.367,0.033 -0.4,-0.1 v -1 c 0,-0.4 -0.017,-0.733 -0.05,-1 -0.367,0.233 -0.767,0.566 -1.2,1 -0.2,0.167 -0.45,0.4 -0.75,0.7 h -0.2 L 19.9,24.7 c -0.3,0 -0.517,0.017 -0.65,0.05 0.067,-0.3 0.1,-0.567 0.1,-0.8 l -0.3,0.6 c -0.033,0.1 -0.133,0.184 -0.3,0.25 h -0.2 c -0.267,0.034 -0.383,0 -0.35,-0.1 l 0.2,-0.4 c -0.1,0.034 -0.2,0.067 -0.3,0.1 -0.167,0.033 -0.333,0.05 -0.5,0.05 -0.033,-0.067 -0.067,-0.117 -0.1,-0.15 -0.133,-0.167 -0.233,-0.283 -0.3,-0.35 -0.067,-0.067 -0.15,-0.1 -0.25,-0.1 -0.067,-0.067 -0.15,-0.083 -0.25,-0.05 -0.034,-0.066 -0.067,-0.15 -0.1,-0.25 -0.067,0.067 -0.2,0.233 -0.4,0.5 l -0.2,0.2 c -0.233,0.333 -0.45,0.567 -0.65,0.7 -0.067,0.066 -0.217,0.133 -0.45,0.2 -0.033,-0.034 -0.067,-0.05 -0.1,-0.05 z m 13.8,-2.6 0.05,0.05 c 0.133,1 -0.267,2.117 -1.2,3.351 0.9,0.1 1.583,-0.233 2.05,-1 0.467,-0.8 0.433,-1.617 -0.1,-2.45 -0.033,0 -0.05,-0.017 -0.05,-0.05 -0.033,-0.1 0.066,-0.2 0.3,-0.3 0.267,-0.1 0.434,-0.083 0.5,0.05 0.233,0.367 0.383,0.717 0.45,1.05 0.2,0.8 -0.05,1.533 -0.75,2.2 -0.9,0.933 -1.967,1.25 -3.2,0.949 -0.1,-0.033 -0.15,-0.083 -0.15,-0.149 0,-0.033 0.017,-0.101 0.05,-0.2 0.4,-0.434 0.7,-0.9 0.9,-1.4 0.267,-0.6 0.383,-1.15 0.35,-1.65 C 27.667,22.983 27.567,23 27.5,23 27.267,23.067 27.133,23.05 27.1,22.95 V 22.9 c -0.067,-0.133 0.033,-0.233 0.3,-0.3 0.3,-0.1 0.583,-0.15 0.85,-0.15 0.167,0 0.283,0.017 0.35,0.05 z M 25.75,24 c 0.233,-0.033 0.467,0.017 0.7,0.15 0.2,0.133 0.2,0.283 0,0.45 -0.233,0.133 -0.434,0.15 -0.6,0.05 -0.1,-0.033 -0.167,0 -0.2,0.1 -0.167,0.167 -0.35,0.183 -0.55,0.05 -0.233,-0.1 -0.25,-0.25 -0.05,-0.45 0.2,-0.167 0.433,-0.283 0.7,-0.35 z m 6.65,1.45 c -0.1,0.033 -0.233,0.066 -0.4,0.1 -0.3,0.066 -0.567,0.101 -0.8,0.101 -0.5,-0.067 -0.65,-0.467 -0.45,-1.2 0.033,-0.1 0.183,-0.167 0.45,-0.2 0.267,-0.067 0.383,-0.033 0.35,0.1 -0.167,0.633 -0.066,0.917 0.3,0.85 0.033,0 0.217,-0.033 0.55,-0.101 h 0.1 c 0.233,-0.066 0.433,-0.1 0.6,-0.1 0.066,0 0.133,0.017 0.2,0.05 0.067,0.033 0.083,0.084 0.05,0.15 -0.1,0.133 -0.283,0.2 -0.55,0.2 -0.1,0 -0.233,0.017 -0.4,0.05 z m -9.85,6.3 C 22.517,31.816 22.5,31.9 22.5,32 c -0.1,0.9 0.317,1.167 1.25,0.8 0.367,-0.133 1.033,-0.5 2,-1.1 0.033,-0.033 0.1,-0.066 0.2,-0.101 0.066,-0.033 0.133,-0.05 0.2,-0.05 0.233,-0.033 0.333,0.017 0.3,0.15 -0.367,0.833 0.183,1.017 1.65,0.55 0.1,-0.033 0.2,-0.066 0.3,-0.1 0.2,0 0.3,0.033 0.3,0.1 0,0.233 0.433,0.4 1.3,0.5 0.533,0.1 1,0.15 1.4,0.15 0.033,-0.034 0.083,-0.034 0.15,0 0.067,0.033 0.1,0.066 0.1,0.1 0.733,-0.267 1.3,-0.566 1.7,-0.9 0.1,-0.066 0.283,-0.1 0.55,-0.1 0.267,0 0.317,0.066 0.15,0.2 -0.267,0.233 -0.65,0.45 -1.15,0.649 -0.3,0.101 -0.783,0.25 -1.45,0.45 -0.934,1.467 -2.284,2.351 -4.05,2.65 -0.333,0.033 -0.45,-0.05 -0.35,-0.25 0.3,-0.566 0.733,-1.033 1.3,-1.4 0.433,-0.3 1.017,-0.566 1.75,-0.8 h -0.15 c -0.3,0.033 -0.534,0.017 -0.7,-0.05 -0.3,-0.134 -0.5,-0.217 -0.6,-0.25 -0.167,-0.066 -0.383,-0.117 -0.65,-0.15 -0.1,-0.033 -0.15,-0.066 -0.15,-0.1 v -0.2 c -0.434,0.134 -0.817,0.2 -1.15,0.2 -0.434,0 -0.85,-0.084 -1.25,-0.25 -0.067,-0.033 -0.1,-0.084 -0.1,-0.15 l 0.05,-0.1 c -1.733,1.133 -2.883,1.5 -3.45,1.1 L 21.9,33.5 C 21.867,33.366 21.817,33.217 21.75,33.05 21.683,32.783 21.633,32.6 21.6,32.5 v -0.05 l 0.3,-0.15 c 0.267,-0.166 0.483,-0.35 0.65,-0.55 z m 5.9,-13.35 c 0.167,-0.1 0.367,-0.15 0.6,-0.15 0.267,0 0.467,0.05 0.6,0.15 0.333,0.233 0.35,0.6 0.05,1.1 -0.034,0.067 -0.05,0.133 -0.05,0.2 0.1,-0.233 0.25,-0.467 0.45,-0.7 0.066,-0.1 0.183,-0.167 0.35,-0.2 0.167,-0.033 0.3,-0.017 0.4,0.05 0.233,0.167 0.517,0.283 0.85,0.35 h 0.9 c 0.233,0 0.283,0.066 0.15,0.2 -0.133,0.134 -0.283,0.2 -0.45,0.2 -0.5,0 -0.8,-0.017 -0.9,-0.05 -0.3,0 -0.583,-0.05 -0.85,-0.15 -0.3,0.4 -0.566,0.684 -0.8,0.85 -0.333,0.2 -0.75,0.267 -1.25,0.2 -0.033,0 -0.067,-0.017 -0.1,-0.05 -0.033,-0.033 -0.033,-0.083 0,-0.15 0.4,-0.433 0.633,-0.767 0.7,-1 0.066,-0.233 0.033,-0.383 -0.1,-0.45 -0.133,-0.066 -0.267,-0.017 -0.4,0.15 l -0.3,0.4 c -0.3,0.3 -0.617,0.383 -0.95,0.25 -0.033,0.133 -0.184,0.217 -0.45,0.25 -0.233,0.033 -0.35,-0.017 -0.35,-0.15 0.067,-0.267 0.167,-0.483 0.3,-0.65 0.066,-0.066 0.183,-0.117 0.35,-0.15 0.2,-0.066 0.333,-0.066 0.4,0 0.066,0.1 0.1,0.2 0.1,0.3 0,-0.034 0.017,-0.067 0.05,-0.1 l 0.2,-0.3 c 0.167,-0.2 0.333,-0.333 0.5,-0.4 z m -6,-6.5 c -0.333,0.167 -0.767,0.217 -1.3,0.15 H 21.1 c -0.3,0.4 -0.5,0.833 -0.6,1.3 l -0.15,0.45 c -0.033,0.167 -0.184,0.267 -0.45,0.3 -0.266,0.033 -0.383,-0.05 -0.35,-0.25 0.2,-0.833 0.167,-1.317 -0.1,-1.45 -0.167,-0.066 -0.633,0 -1.4,0.2 -0.1,0.033 -0.2,0.033 -0.3,0 -0.133,-0.033 -0.2,-0.1 -0.2,-0.2 l 0.1,-0.35 c -0.333,0.167 -0.65,0.233 -0.95,0.2 0.133,-0.033 0.45,-0.35 0.95,-0.95 l 0.25,-0.35 c 0.233,-0.6 0.567,-1.184 1,-1.75 0.067,-0.1 0.217,-0.167 0.45,-0.2 0.233,-0.033 0.333,0.033 0.3,0.2 -0.267,0.867 -0.683,1.6 -1.25,2.2 0.033,0.3 0.317,0.383 0.85,0.25 0.133,-0.033 0.317,-0.017 0.55,0.05 0.267,0.1 0.434,0.15 0.5,0.15 l 0.1,0.05 c 0.233,-0.333 0.434,-0.6 0.6,-0.8 0.1,-0.067 0.25,-0.117 0.45,-0.15 0.2,0 0.3,0.083 0.3,0.25 -0.033,0.4 0.15,0.45 0.55,0.15 0.267,-0.233 0.517,-0.517 0.75,-0.85 0.067,-0.1 0.217,-0.15 0.45,-0.15 0.233,0 0.317,0.083 0.25,0.25 0,0.033 -0.117,0.3 -0.35,0.8 -0.133,0.3 -0.217,0.567 -0.25,0.8 -0.066,0.4 0.167,0.6 0.7,0.6 0.133,0 0.483,-0.066 1.05,-0.2 0.767,-0.167 1.633,-0.233 2.6,-0.2 0.233,0 0.3,0.083 0.2,0.25 -0.133,0.133 -0.284,0.2 -0.45,0.2 -0.166,0 -0.967,0.133 -2.4,0.4 -1.033,0.2 -1.817,0.15 -2.35,-0.15 -0.233,-0.133 -0.25,-0.533 -0.05,-1.2 z m -7.75,0.45 c -0.034,-0.133 0.083,-0.233 0.35,-0.3 l 1.1,-0.5 c 0.1,-0.066 0.267,-0.1 0.5,-0.1 0.233,0.033 0.3,0.117 0.2,0.25 -0.067,0.1 -0.133,0.2 -0.2,0.3 -0.066,0.133 -0.083,0.217 -0.05,0.25 -0.067,0 -0.2,-0.033 -0.4,-0.1 -0.3,0.167 -0.65,0.3 -1.05,0.4 -0.233,0.033 -0.383,-0.033 -0.45,-0.2 z m 16.5,18.1 c 0.267,-0.033 0.367,0 0.3,0.1 -0.333,0.533 -0.733,0.7 -1.2,0.5 L 30.25,31 c 0,-0.1 0.017,-0.184 0.05,-0.25 0.067,-0.1 0.117,-0.184 0.15,-0.25 0.033,-0.1 0.183,-0.184 0.45,-0.25 h 0.25 c 0.1,0 0.133,0.033 0.1,0.1 z m -8.35,0.7 V 31.1 c 0.033,-0.199 -0.033,-0.383 -0.2,-0.55 0.067,-0.033 0.133,-0.083 0.2,-0.149 0.7,-0.601 1.533,-1.067 2.5,-1.4 0.2,-0.066 0.367,-0.066 0.5,0 0.133,0.066 0.066,0.15 -0.2,0.25 -0.7,0.267 -1.333,0.6 -1.9,1 -0.4,0.299 -0.7,0.599 -0.9,0.899 z m 5.6,-0.95 c 0.066,-0.033 0.2,-0.084 0.4,-0.15 0.167,-0.066 0.3,-0.05 0.4,0.05 0.1,0.067 0.133,0.15 0.1,0.25 0.233,0.034 0.316,0.15 0.25,0.351 -0.067,0.166 -0.2,0.267 -0.4,0.3 -0.233,0.033 -0.4,0.05 -0.5,0.05 -0.2,-0.033 -0.367,-0.116 -0.5,-0.25 -0.034,-0.066 -0.034,-0.149 0,-0.25 0.033,-0.167 0.117,-0.284 0.25,-0.351 z m -0.35,5.05 c -0.3,0.533 0.05,0.467 1.05,-0.2 1,-0.666 1.434,-1.133 1.3,-1.399 -1.233,0.399 -2.017,0.932 -2.35,1.599 z"
     fill="#9d957e"
     id="path32"
     style="stroke-width:0.00154865" /><path
     d="m 17.6,20.15 1.5,0.05 c 0.066,0 0.167,-0.034 0.3,-0.1 0.1,0 0.383,-0.083 0.85,-0.25 L 21.5,19.8 c -0.033,0.167 -0.117,0.35 -0.25,0.55 -0.067,0.133 -0.167,0.316 -0.3,0.55 -0.1,0.2 -0.284,0.5 -0.55,0.9 -0.2,0.333 -0.35,0.633 -0.45,0.9 H 19.8 c -0.233,0.066 -0.383,0.15 -0.45,0.25 -0.333,0.3 -0.617,0.667 -0.85,1.1 h -0.2 c -0.333,0.067 -0.566,-0.033 -0.7,-0.3 -0.033,-0.067 -0.083,-0.183 -0.15,-0.35 0.3,-0.367 0.617,-0.7 0.95,-1 0.434,-0.4 0.767,-0.7 1,-0.9 0.367,-0.367 0.65,-0.717 0.85,-1.05 l -3,-0.05 c -0.567,0.2 -1.3,0.533 -2.2,1 -0.066,0.033 -0.233,0.1 -0.5,0.2 -0.267,0.133 -0.433,0.267 -0.5,0.4 -0.033,0.1 -0.017,0.25 0.05,0.45 v 0.1 c -0.033,0.034 0,0.05 0.1,0.05 0.066,0.133 0.15,0.316 0.25,0.55 0.1,0.133 0.216,0.317 0.35,0.55 0,0.033 0.017,0.05 0.05,0.05 -0.067,0.3 -0.167,0.733 -0.3,1.3 H 14.5 c -0.167,-0.066 -0.283,-0.1 -0.35,-0.1 -0.133,0 -0.233,0.05 -0.3,0.149 -0.033,0.067 -0.067,0.15 -0.1,0.25 -1.267,-0.3 -2.217,-0.516 -2.85,-0.649 L 9.7,24.5 9.3,24.1 9.25,24.05 v -0.2 C 9.25,23.283 9.233,22.733 9.2,22.2 V 21.65 C 9.2,21.584 9.183,21.533 9.15,21.5 H 9.2 c 0.367,0.133 0.617,0.2 0.75,0.2 0.066,0.033 0.15,0.033 0.25,0 h 0.25 c 1.233,-0.2 2.7,-0.483 4.4,-0.85 0.267,-0.067 0.717,-0.184 1.35,-0.35 0.6,-0.167 1.067,-0.283 1.4,-0.35 z m -1.4,3.9 h 0.15 c -0.133,0.1 -0.267,0.25 -0.4,0.45 -0.133,0.2 -0.233,0.467 -0.3,0.8 -0.033,0.066 -0.05,0.15 -0.05,0.25 h -0.1 l -0.3,-0.3 c -0.067,-0.033 -0.167,-0.066 -0.3,-0.1 0.233,-0.067 0.383,-0.134 0.45,-0.2 0.2,-0.133 0.417,-0.367 0.65,-0.7 z m 1.85,1.3 c -0.066,-0.3 -0.216,-0.6 -0.45,-0.899 0.167,0 0.333,-0.017 0.5,-0.05 0.1,-0.033 0.2,-0.066 0.3,-0.1 l -0.2,0.4 c -0.034,0.1 0.083,0.133 0.35,0.1 h 0.2 l -0.15,0.15 -0.15,0.3 c -0.034,0.033 -0.083,0.083 -0.15,0.15 -0.1,-0.035 -0.183,-0.051 -0.25,-0.051 z"
     fill="#e0d6b6"
     id="path34"
     style="stroke-width:0.00154865" /><path
     d="m 30.6,23.2 1.75,1.15 c 0.033,0.167 0.05,0.417 0.05,0.75 -0.333,0.067 -0.517,0.101 -0.55,0.101 -0.367,0.066 -0.467,-0.217 -0.3,-0.85 0.034,-0.133 -0.083,-0.167 -0.35,-0.1 -0.267,0.033 -0.417,0.1 -0.45,0.2 -0.2,0.733 -0.05,1.133 0.45,1.2 0.233,0 0.5,-0.034 0.8,-0.101 0.167,-0.033 0.3,-0.066 0.4,-0.1 v 0.2 l -0.85,0.199 c -0.466,0.134 -1.233,0.434 -2.3,0.9 -0.3,0.167 -0.517,0.267 -0.65,0.3 -0.1,0.033 -0.283,0 -0.55,-0.1 -0.367,-0.066 -0.9,-0.167 -1.6,-0.3 -0.7,-0.167 -1.217,-0.284 -1.55,-0.351 -0.5,-0.1 -0.85,-0.149 -1.05,-0.149 -0.033,-0.067 -0.033,-0.15 0,-0.25 0.066,-0.233 0.233,-0.584 0.5,-1.05 0.1,-0.2 0.167,-0.367 0.2,-0.5 0.133,0 0.284,-0.05 0.45,-0.15 0.2,-0.167 0.2,-0.25 0,-0.25 h -0.2 l 0.1,-0.1 c 0,0 0.083,-0.067 0.15,-0.1 h 0.15 c 0.167,0 0.433,-0.1 0.8,-0.3 0.367,-0.2 0.733,-0.367 1.1,-0.5 0.033,0.1 0.167,0.117 0.4,0.05 0.067,0 0.167,-0.017 0.3,-0.05 0.034,0.5 -0.083,1.05 -0.35,1.65 -0.2,0.5 -0.5,0.966 -0.9,1.4 -0.033,0.1 -0.05,0.167 -0.05,0.2 0,0.066 0.05,0.116 0.15,0.149 1.233,0.301 2.3,-0.017 3.2,-0.949 C 30.55,24.733 30.8,24 30.6,23.2 Z M 25.75,24 c -0.267,0.067 -0.5,0.183 -0.7,0.35 -0.2,0.2 -0.183,0.35 0.05,0.45 0.2,0.133 0.383,0.117 0.55,-0.05 0.033,-0.1 0.1,-0.133 0.2,-0.1 0.167,0.1 0.367,0.083 0.6,-0.05 0.2,-0.167 0.2,-0.317 0,-0.45 -0.233,-0.133 -0.467,-0.183 -0.7,-0.15 z m 3.6,-1.6 c 0,0.033 0.017,0.05 0.05,0.05 0.533,0.833 0.567,1.65 0.1,2.45 -0.467,0.767 -1.15,1.1 -2.05,1 0.933,-1.234 1.333,-2.351 1.2,-3.351 L 28.6,22.5 c 0.367,-0.1 0.6,-0.15 0.7,-0.15 z"
     fill="#ede4ca"
     id="path36"
     style="stroke-width:0.00154865" /><path
     d="M 6.2,9.1 C 6.167,8.833 6.133,8.567 6.1,8.3 H 6.15 C 7.383,9 9,9.633 11,10.2 c 0.9,0.267 1.767,0.5 2.6,0.7 0.066,0 0.133,0.017 0.2,0.05 -0.066,0.2 -0.133,0.4 -0.2,0.6 -1.167,0.367 -2.333,0.667 -3.5,0.9 l -2.2,0.3 -0.35,-0.1 -0.4,-0.1 C 6.85,11.683 6.617,10.967 6.45,10.4 L 6.35,9.85 C 6.283,9.583 6.233,9.333 6.2,9.1 Z m 8.25,2.25 c 0,-0.1 0.017,-0.2 0.05,-0.3 0.167,0.034 0.3,0.034 0.4,0 -0.133,0.133 -0.283,0.233 -0.45,0.3 z"
     fill="#dbd5b8"
     id="path38"
     style="stroke-width:0.00154865" /><linearGradient
     id="linearGradient1097"
     x1="24.615999"
     x2="37.368999"
     y1="-16.304001"
     y2="-16.304001"
     gradientTransform="matrix(0.0206,0.9998,-0.9998,0.0206,0.49962385,-0.03424343)"
     gradientUnits="userSpaceOnUse"><stop
       stop-color="#ADB53D"
       offset="0"
       id="stop1093" /><stop
       stop-color="#69701E"
       offset="1"
       id="stop1095" /></linearGradient><path
     d="m 20.45,24.75 c 0.1,0.067 0.15,0.167 0.15,0.3 v 0.55 c 0,0 0,0.4 0,0.5 0,0.167 -0.033,0.317 -0.1,0.45 l -0.1,0.3 C 20.167,26.517 19.9,26.234 19.6,26 19.2,25.7 18.767,25.5 18.3,25.4 l 0.15,-0.15 c 0.1,-0.1 0.183,-0.167 0.25,-0.2 0.133,-0.133 0.283,-0.233 0.45,-0.3 h 0.1 C 19.383,24.717 19.6,24.7 19.9,24.7 l 0.25,-0.05 h 0.2 c 0.067,0.033 0.1,0.067 0.1,0.1 z m 1.95,2.55 c 0.033,0.033 0.067,0.066 0.1,0.101 v 0.149 c 0,0.533 -0.217,0.983 -0.65,1.351 -0.067,0.033 -0.2,0.166 -0.4,0.399 -0.1,-0.399 -0.217,-0.783 -0.35,-1.149 -0.133,-0.334 -0.267,-0.634 -0.4,-0.9 0.033,0.033 0.083,0.05 0.15,0.05 h 0.1 c 0.2,-0.033 0.466,-0.05 0.8,-0.05 0.267,-0.033 0.467,-0.017 0.6,0.05 h 0.05 z m -9.65,1.15 C 12.717,28.384 12.667,28.3 12.6,28.2 c -0.1,-0.233 -0.167,-0.4 -0.2,-0.5 0,-0.101 -0.017,-0.25 -0.05,-0.45 v -0.151 c 0,-0.133 0.017,-0.233 0.05,-0.3 0.033,-0.1 0.1,-0.166 0.2,-0.2 0.133,-0.033 0.316,-0.033 0.55,0 0.233,0 0.417,0.034 0.55,0.101 h 0.05 c -0.067,-0.367 -0.083,-0.617 -0.05,-0.75 0,-0.2 0.017,-0.351 0.05,-0.45 v -0.15 c 0.033,-0.1 0.067,-0.183 0.1,-0.25 0.066,-0.1 0.167,-0.149 0.3,-0.149 0.067,0 0.184,0.033 0.35,0.1 h 0.05 c 0.1,0 0.184,0.017 0.25,0.05 0.067,0.034 0.117,0.067 0.15,0.101 l 0.5,0.5 c -0.967,0.399 -1.75,1.1 -2.35,2.1 -0.133,0.198 -0.25,0.415 -0.35,0.648 z m 2.85,-2.8 v -0.101 c 0,-0.1 0.017,-0.184 0.05,-0.25 0.067,-0.333 0.167,-0.6 0.3,-0.8 0.133,-0.2 0.267,-0.35 0.4,-0.45 0.066,-0.1 0.133,-0.167 0.2,-0.2 0.034,-0.033 0.083,-0.05 0.15,-0.05 0.1,-0.033 0.183,-0.017 0.25,0.05 0,0.033 0.1,0.15 0.3,0.35 0.233,0.267 0.383,0.517 0.45,0.75 0.033,0.1 0.066,0.217 0.1,0.35 h -0.5 c -0.633,0.034 -1.2,0.151 -1.7,0.351 z m -3.3,4.45 c -0.066,-0.066 -0.233,-0.166 -0.5,-0.3 -0.233,-0.166 -0.4,-0.316 -0.5,-0.45 0,-0.033 -0.017,-0.066 -0.05,-0.1 v -0.1 c 0,-0.067 0.133,-0.167 0.4,-0.301 0.1,-0.033 0.3,-0.05 0.6,-0.05 0.133,0 0.267,-0.017 0.4,-0.05 -0.167,0.435 -0.283,0.885 -0.35,1.351 z m 0,0.45 c 0,0.533 0.067,1.084 0.2,1.65 L 12.475,32.175 C 12.347,32.123 12.205,32.081 12.05,32.05 h -0.2 c -0.167,-0.066 -0.283,-0.116 -0.35,-0.149 -0.133,-0.134 -0.167,-0.284 -0.1,-0.45 0.067,-0.134 0.167,-0.267 0.3,-0.4 0.267,-0.235 0.467,-0.401 0.6,-0.501 z m 1.35,4.25 c -0.267,0.033 -0.483,0.05 -0.65,0.05 h -0.25 c -0.233,-0.033 -0.4,-0.116 -0.5,-0.25 -0.1,-0.166 -0.15,-0.35 -0.15,-0.55 -0.033,-0.233 -0.017,-0.434 0.05,-0.6 0.2,-0.233 0.35,-0.434 0.45,-0.601 0,-0.033 0.017,-0.066 0.05,-0.1 0.067,0.167 0.133,0.333 0.2,0.5 0.2,0.601 0.467,1.117 0.8,1.551 z m 1.65,1.45 -0.25,0.25 c -0.3,0.2 -0.65,0.283 -1.05,0.25 -0.067,0 -0.117,-0.017 -0.15,-0.05 -0.033,0 -0.067,-0.017 -0.1,-0.05 v -0.5 c -0.033,-0.334 -0.05,-0.534 -0.05,-0.601 0,-0.067 0.033,-0.2 0.1,-0.399 V 35 c 0.433,0.533 0.933,0.95 1.5,1.25 z m 2.8,0.4 c -0.033,0.066 -0.067,0.133 -0.1,0.199 -0.067,0.167 -0.117,0.284 -0.15,0.351 l -0.1,0.149 c -0.067,-0.033 -0.15,-0.05 -0.25,-0.05 -0.533,-0.033 -1.017,-0.066 -1.45,-0.1 -0.033,-0.101 -0.083,-0.217 -0.15,-0.351 -0.066,-0.166 -0.117,-0.3 -0.15,-0.399 0.333,0.1 0.683,0.184 1.05,0.25 0.433,0.068 0.867,0.051 1.3,-0.049 z m 1.05,0.85 H 19 c -0.333,-0.267 -0.567,-0.5 -0.7,-0.7 -0.033,-0.066 -0.066,-0.116 -0.1,-0.149 0.267,-0.067 0.533,-0.167 0.8,-0.301 0.433,-0.233 0.817,-0.533 1.15,-0.899 -0.033,0.133 -0.033,0.3 0,0.5 0.033,0.333 0.017,0.6 -0.05,0.8 0,0.066 -0.017,0.184 -0.05,0.35 -0.033,0.167 -0.066,0.301 -0.1,0.4 h -0.8 z m 1.4,-2.2 H 20.5 c -0.067,-0.033 -0.133,-0.05 -0.2,-0.05 l 0.3,-0.6 c 0.367,-0.733 0.633,-1.45 0.8,-2.15 0.033,0.1 0.067,0.25 0.1,0.45 0.067,0.233 0.133,0.416 0.2,0.55 0.066,0.1 0.15,0.217 0.25,0.35 0.066,0.067 0.167,0.167 0.3,0.301 0.167,0.133 0.283,0.3 0.35,0.5 -0.033,0.066 -0.067,0.1 -0.1,0.1 0,0.033 -0.033,0.066 -0.1,0.1 -0.133,0.101 -0.3,0.2 -0.5,0.301 -0.033,0 -0.217,0.066 -0.55,0.199 -0.233,0.066 -0.5,0.049 -0.8,-0.051 z m 1,-5.5 c 0.133,0.101 0.333,0.25 0.6,0.45 0.333,0.2 0.483,0.467 0.45,0.8 -0.033,0.134 -0.133,0.334 -0.3,0.601 -0.133,0.199 -0.35,0.383 -0.65,0.55 -0.1,0.066 -0.167,0.116 -0.2,0.149 0.167,-0.867 0.2,-1.716 0.1,-2.55 z"
     fill="url(#n)"
     id="path45"
     style="fill:url(#n);stroke-width:0.0409074" /><path
     d="m 20.85,27.3 c -0.067,0 -0.117,-0.017 -0.15,-0.05 -0.1,-0.134 -0.2,-0.267 -0.3,-0.4 l 0.1,-0.3 c 0.067,-0.133 0.1,-0.283 0.1,-0.45 v -0.5 c 0,0 0,-0.416 0,-0.55 0,-0.133 -0.05,-0.233 -0.15,-0.3 h 0.15 c 0.133,0.033 0.217,0.167 0.25,0.4 v 1 c 0,0.199 -0.033,0.366 -0.1,0.5 L 20.6,26.9 c 0.1,0.1 0.183,0.234 0.25,0.4 z m 2,3.85 c -0.133,0.199 -0.233,0.399 -0.3,0.6 -0.167,0.2 -0.383,0.384 -0.65,0.55 l -0.3,0.15 v 0.05 c 0.033,0.1 0.083,0.283 0.15,0.55 0.067,0.167 0.117,0.316 0.15,0.45 l 0.05,0.05 c 0.066,0.134 0.15,0.25 0.25,0.351 0.066,0.066 0.167,0.183 0.3,0.35 0.167,0.134 0.267,0.283 0.3,0.45 0,0.066 -0.017,0.116 -0.05,0.149 l -0.1,0.051 c -0.133,0.133 -0.3,0.233 -0.5,0.3 -0.066,0.033 -0.25,0.1 -0.55,0.2 -0.1,0.033 -0.2,0.05 -0.3,0.05 h -0.1 c -0.2,0 -0.417,-0.05 -0.65,-0.15 0.3,0.101 0.567,0.117 0.8,0.05 0.333,-0.133 0.517,-0.199 0.55,-0.199 0.2,-0.101 0.367,-0.2 0.5,-0.301 0.067,-0.033 0.1,-0.066 0.1,-0.1 0.033,0 0.067,-0.033 0.1,-0.1 -0.067,-0.2 -0.184,-0.367 -0.35,-0.5 -0.133,-0.134 -0.233,-0.233 -0.3,-0.301 -0.1,-0.133 -0.184,-0.25 -0.25,-0.35 -0.067,-0.134 -0.133,-0.316 -0.2,-0.55 -0.033,-0.2 -0.067,-0.351 -0.1,-0.45 0,-0.066 0.017,-0.116 0.05,-0.15 0.033,-0.033 0.1,-0.083 0.2,-0.149 0.3,-0.167 0.517,-0.351 0.65,-0.55 0.167,-0.267 0.267,-0.467 0.3,-0.601 0.033,-0.333 -0.117,-0.6 -0.45,-0.8 -0.267,-0.2 -0.467,-0.35 -0.6,-0.45 -0.033,-0.166 -0.066,-0.333 -0.1,-0.5 0.2,-0.233 0.333,-0.366 0.4,-0.399 0.433,-0.367 0.65,-0.817 0.65,-1.351 V 27.4 c -0.033,-0.034 -0.067,-0.067 -0.1,-0.101 0.067,0.033 0.133,0.05 0.2,0.05 0.066,0.034 0.117,0.067 0.15,0.101 v 0.2 c 0,0.233 -0.067,0.466 -0.2,0.699 -0.1,0.2 -0.233,0.384 -0.4,0.551 -0.033,0 -0.066,0.017 -0.1,0.05 -0.066,0.066 -0.2,0.217 -0.4,0.45 l 0.1,0.449 0.65,0.45 c 0.1,0.066 0.184,0.15 0.25,0.25 0.167,0.167 0.233,0.351 0.2,0.55 z m -7.4,-5.45 -0.5,-0.5 c -0.034,-0.033 -0.083,-0.066 -0.15,-0.101 0.034,0 0.067,0.017 0.1,0.051 0.133,0.033 0.233,0.066 0.3,0.1 l 0.3,0.3 c 0.033,0.033 0.067,0.066 0.1,0.101 -0.067,-0.001 -0.117,0.016 -0.15,0.049 z m 2.15,-1.25 c 0.233,0.3 0.383,0.6 0.45,0.899 -0.066,-0.033 -0.15,-0.05 -0.25,-0.05 -0.033,-0.133 -0.066,-0.25 -0.1,-0.35 -0.067,-0.233 -0.217,-0.483 -0.45,-0.75 -0.2,-0.2 -0.3,-0.317 -0.3,-0.35 0.1,0 0.183,0.033 0.25,0.1 0.066,0.066 0.167,0.183 0.3,0.35 0.033,0.034 0.067,0.084 0.1,0.151 z m -4.85,10.4 H 13 c 0.167,0 0.383,-0.017 0.65,-0.05 l 0.05,0.05 c -0.233,0.067 -0.417,0.101 -0.55,0.101 h -0.1 c -0.1,-0.034 -0.2,-0.067 -0.3,-0.101 z m 2.8,1.5 c -0.066,0.034 -0.15,0.101 -0.25,0.2 -0.133,0.101 -0.283,0.167 -0.45,0.2 -0.2,0.066 -0.4,0.083 -0.6,0.05 H 14.1 c 0,0 -0.067,-0.017 -0.1,-0.05 0.4,0.033 0.75,-0.05 1.05,-0.25 l 0.25,-0.25 c 0.067,0.033 0.15,0.066 0.25,0.1 z m 2.75,0.45 c -0.066,0.134 -0.133,0.3 -0.2,0.5 L 18,37.4 c -0.033,-0.034 -0.083,-0.051 -0.15,-0.051 h -0.1 l 0.1,-0.149 c 0.033,-0.066 0.083,-0.184 0.15,-0.351 0.033,-0.066 0.067,-0.133 0.1,-0.199 h 0.1 c 0.033,0.034 0.067,0.083 0.1,0.15 z m 2,-1.55 c 0.067,0 0.133,0.017 0.2,0.05 l -0.1,0.15 c -0.033,0.1 -0.033,0.333 0,0.7 0,0.267 -0.017,0.483 -0.05,0.649 -0.1,0.467 -0.15,0.717 -0.15,0.75 h -0.95 c -0.032,-0.032 -0.065,-0.049 -0.1,-0.05 h 0.8 c 0.033,-0.1 0.066,-0.233 0.1,-0.4 0.034,-0.166 0.05,-0.283 0.05,-0.35 0.066,-0.2 0.083,-0.467 0.05,-0.8 -0.033,-0.2 -0.033,-0.367 0,-0.5 0.033,-0.065 0.083,-0.133 0.15,-0.199 z m -8.45,-3.2 h 0.2 c 0.156,0.031 0.297,0.073 0.425,0.125 -0.063,-0.017 -0.138,-0.024 -0.225,-0.024 -0.167,-0.035 -0.3,-0.068 -0.4,-0.101 z"
     fill="#4b571b"
     id="path47"
     style="stroke-width:0.00154865" /><linearGradient
     id="linearGradient1105"
     x1="26.028"
     x2="36.355999"
     y1="-16.319"
     y2="-16.319"
     gradientTransform="matrix(0.0206,0.9998,-0.9998,0.0206,0.50035979,-0.03358242)"
     gradientUnits="userSpaceOnUse"><stop
       stop-color="#C8D146"
       offset="0"
       id="stop1101" /><stop
       stop-color="#7D8523"
       offset="1"
       id="stop1103" /></linearGradient><path
     d="m 18.05,25.35 c 0.067,0 0.15,0.017 0.25,0.051 0.467,0.1 0.9,0.3 1.3,0.6 0.3,0.233 0.566,0.517 0.8,0.85 0.1,0.134 0.2,0.267 0.3,0.4 0.133,0.267 0.267,0.566 0.4,0.9 0.133,0.366 0.25,0.75 0.35,1.149 0.033,0.167 0.066,0.334 0.1,0.5 0.1,0.834 0.067,1.684 -0.1,2.55 -0.034,0.034 -0.05,0.084 -0.05,0.15 -0.167,0.7 -0.433,1.417 -0.8,2.15 -0.1,0.199 -0.2,0.399 -0.3,0.6 -0.066,0.066 -0.117,0.134 -0.15,0.2 -0.333,0.366 -0.717,0.666 -1.15,0.899 -0.267,0.134 -0.533,0.233 -0.8,0.301 h -0.1 c -0.434,0.1 -0.867,0.116 -1.3,0.05 -0.367,-0.066 -0.716,-0.15 -1.05,-0.25 -0.067,-0.033 -0.133,-0.066 -0.2,-0.101 -0.1,-0.033 -0.183,-0.066 -0.25,-0.1 -0.566,-0.3 -1.066,-0.717 -1.5,-1.25 -0.033,-0.033 -0.066,-0.083 -0.1,-0.15 l -0.05,-0.05 c -0.333,-0.434 -0.6,-0.95 -0.8,-1.55 -0.067,-0.167 -0.133,-0.333 -0.2,-0.5 -0.066,-0.167 -0.117,-0.35 -0.15,-0.55 -0.133,-0.566 -0.2,-1.117 -0.2,-1.65 v -0.45 c 0.067,-0.466 0.184,-0.916 0.35,-1.35 0.033,-0.1 0.067,-0.2 0.1,-0.3 0.1,-0.233 0.217,-0.45 0.35,-0.65 0.6,-1 1.383,-1.7 2.35,-2.1 0.033,-0.033 0.083,-0.05 0.15,-0.05 0.5,-0.2 1.066,-0.317 1.7,-0.351 h 0.5 c 0.1,0.002 0.183,0.018 0.25,0.052 z M 17.9,25.8 c -0.267,-0.066 -0.533,-0.1 -0.8,-0.1 -1.7,0.1 -2.967,0.883 -3.8,2.35 -0.9,1.5 -0.983,3.2 -0.25,5.101 0.733,1.866 1.934,2.933 3.6,3.199 0.733,0.101 1.4,-0.017 2,-0.35 0.667,-0.333 1.15,-0.866 1.45,-1.6 1,-2.134 1.15,-4.15 0.45,-6.051 -0.333,-0.833 -0.8,-1.483 -1.4,-1.949 -0.367,-0.3 -0.783,-0.5 -1.25,-0.6 z"
     fill="url(#o)"
     id="path54"
     style="fill:url(#o);stroke-width:0.0409074" /><linearGradient
     id="linearGradient1112"
     x1="26.429001"
     x2="36.056"
     y1="-16.128"
     y2="-16.128"
     gradientTransform="matrix(0.0208,0.9998,-0.9998,0.0208,0.4997503,-0.03363313)"
     gradientUnits="userSpaceOnUse"><stop
       stop-color="#CFE065"
       offset="0"
       id="stop1108" /><stop
       stop-color="#D8E063"
       offset="1"
       id="stop1110" /></linearGradient><path
     d="m 17.9,25.8 c 0.467,0.101 0.883,0.3 1.25,0.601 0.6,0.466 1.067,1.116 1.4,1.949 0.7,1.9 0.55,3.917 -0.45,6.051 -0.3,0.733 -0.783,1.267 -1.45,1.6 -0.6,0.333 -1.267,0.45 -2,0.35 -1.667,-0.267 -2.867,-1.333 -3.6,-3.199 -0.733,-1.9 -0.65,-3.601 0.25,-5.101 0.833,-1.467 2.1,-2.25 3.8,-2.35 0.267,-0.001 0.533,0.032 0.8,0.099 z M 17,26.05 c -1.533,0.066 -2.683,0.783 -3.45,2.15 -0.8,1.399 -0.867,3 -0.2,4.8 0.667,1.767 1.75,2.767 3.25,3 0.667,0.1 1.283,0 1.85,-0.3 0.566,-0.334 1,-0.834 1.3,-1.5 0.9,-2 1.033,-3.9 0.4,-5.7 C 19.517,26.767 18.467,25.95 17,26.05 Z"
     fill="url(#p)"
     id="path61"
     style="fill:url(#p);stroke-width:0.0409074" /><linearGradient
     id="linearGradient1119"
     x1="26.728001"
     x2="35.755001"
     y1="-16.077999"
     y2="-16.077999"
     gradientTransform="matrix(0.0208,0.9998,-0.9998,0.0208,0.49964748,-0.03426275)"
     gradientUnits="userSpaceOnUse"><stop
       stop-color="#C8D146"
       offset="0"
       id="stop1115" /><stop
       stop-color="#7D8523"
       offset="1"
       id="stop1117" /></linearGradient><path
     d="m 17.1,29.9 0.4,0.05 -0.1,1.85 c 0,0.2 0.083,0.3 0.25,0.3 0.2,0 0.3,-0.1 0.3,-0.3 l 0.1,-1.85 h 0.4 c 0.167,0.033 0.25,-0.033 0.25,-0.2 0.033,-0.066 0.017,-0.134 -0.05,-0.2 C 18.617,29.517 18.567,29.5 18.5,29.5 l -1.4,-0.1 c -0.167,0 -0.25,0.083 -0.25,0.25 -0.033,0.166 0.05,0.25 0.25,0.25 z m -0.6,0 c 0.133,0 0.217,-0.084 0.25,-0.25 0,-0.167 -0.083,-0.25 -0.25,-0.25 l -1.35,-0.051 c -0.167,0 -0.25,0.084 -0.25,0.25 0,0.167 0.067,0.25 0.2,0.25 h 0.4 L 15.45,31.7 c -0.033,0.2 0.05,0.3 0.25,0.3 0.167,0.033 0.267,-0.05 0.3,-0.25 l 0.05,-1.85 z m 3,-1.35 c 0,-0.066 -0.017,-0.116 -0.05,-0.149 C 19.383,28.334 19.317,28.3 19.25,28.3 L 14.6,28.15 c -0.067,0 -0.133,0.017 -0.2,0.05 -0.033,0.066 -0.066,0.133 -0.1,0.2 l 0.25,0.399 c 0.067,0.167 0.184,0.25 0.35,0.25 l 3.95,0.15 c 0.167,0 0.3,-0.066 0.4,-0.2 z M 17,26.05 c 1.467,-0.1 2.517,0.717 3.15,2.45 0.633,1.8 0.5,3.7 -0.4,5.7 -0.3,0.666 -0.733,1.166 -1.3,1.5 -0.567,0.3 -1.183,0.4 -1.85,0.3 -1.5,-0.233 -2.583,-1.233 -3.25,-3 -0.667,-1.8 -0.6,-3.4 0.2,-4.8 0.767,-1.367 1.917,-2.084 3.45,-2.15 z m -2.9,6.9 c 0,0.066 0.017,0.116 0.05,0.149 0.067,0.067 0.133,0.101 0.2,0.101 L 19,33.4 c 0.067,0 0.133,-0.017 0.2,-0.051 0.066,-0.033 0.1,-0.083 0.1,-0.149 L 19.05,32.75 C 19.017,32.616 18.9,32.533 18.7,32.5 l -4,-0.15 c -0.133,-0.033 -0.25,0.017 -0.35,0.15 z"
     fill="url(#q)"
     id="path68"
     style="fill:url(#q);stroke-width:0.0409074" /><path
     d="M 16.5,29.9 H 16.05 L 16,31.75 c -0.033,0.2 -0.133,0.283 -0.3,0.25 -0.2,0 -0.284,-0.1 -0.25,-0.3 l 0.05,-1.851 h -0.4 c -0.133,0 -0.2,-0.083 -0.2,-0.25 0,-0.166 0.083,-0.25 0.25,-0.25 L 16.5,29.4 c 0.167,0 0.25,0.083 0.25,0.25 -0.033,0.166 -0.117,0.25 -0.25,0.25 z m 0.6,0 c -0.2,0 -0.283,-0.084 -0.25,-0.25 0,-0.167 0.083,-0.25 0.25,-0.25 l 1.4,0.1 c 0.067,0 0.117,0.017 0.15,0.05 0.067,0.066 0.083,0.134 0.05,0.2 0,0.167 -0.083,0.233 -0.25,0.2 h -0.4 l -0.1,1.85 c 0,0.2 -0.1,0.3 -0.3,0.3 -0.167,0 -0.25,-0.1 -0.25,-0.3 l 0.1,-1.85 z M 19.5,28.55 19.25,29 c -0.1,0.134 -0.233,0.2 -0.4,0.2 L 14.9,29.05 c -0.167,0 -0.283,-0.083 -0.35,-0.25 L 14.3,28.4 c 0.034,-0.067 0.067,-0.134 0.1,-0.2 0.067,-0.033 0.133,-0.05 0.2,-0.05 l 4.65,0.149 c 0.067,0 0.133,0.033 0.2,0.101 0.033,0.034 0.05,0.083 0.05,0.15 z m -5.4,4.4 0.25,-0.45 c 0.1,-0.134 0.217,-0.184 0.35,-0.15 l 4,0.15 c 0.2,0.033 0.316,0.116 0.35,0.25 l 0.25,0.45 c 0,0.066 -0.033,0.116 -0.1,0.149 C 19.133,33.384 19.067,33.4 19,33.4 l -4.65,-0.2 c -0.067,0 -0.133,-0.033 -0.2,-0.101 C 14.117,33.066 14.1,33.017 14.1,32.95 Z"
     fill="#606e23"
     id="path70"
     style="stroke-width:0.00154865" /><linearGradient
     id="linearGradient1127"
     x1="33.598"
     x2="36.950001"
     y1="-19.235001"
     y2="-19.235001"
     gradientTransform="matrix(-0.0336,0.9994,-0.9994,-0.0336,0.49963038,-0.03398515)"
     gradientUnits="userSpaceOnUse"><stop
       stop-color="#C8D146"
       offset="0"
       id="stop1123" /><stop
       stop-color="#7D8523"
       offset="1"
       id="stop1125" /></linearGradient><path
     d="m 14.85,36.75 c 0.167,-0.033 0.316,-0.1 0.45,-0.2 0.1,-0.1 0.184,-0.166 0.25,-0.2 0.067,0.034 0.133,0.067 0.2,0.101 0.033,0.1 0.083,0.233 0.15,0.399 0.067,0.134 0.117,0.25 0.15,0.351 -0.433,-0.033 -0.833,-0.066 -1.2,-0.101 z m 6.2,1.15 -2.55,-0.15 0.15,-0.05 v -0.05 c -0.033,-0.034 -0.066,-0.051 -0.1,-0.051 v -0.05 c -0.066,-0.033 -0.133,-0.066 -0.2,-0.1 l -0.2,-0.05 H 18 l 0.1,-0.101 c 0.066,-0.2 0.133,-0.366 0.2,-0.5 0.133,0.2 0.367,0.434 0.7,0.7 h 0.15 c 0.035,0.001 0.068,0.018 0.1,0.05 h 0.95 c 0,-0.033 0.05,-0.283 0.15,-0.75 0.033,-0.166 0.05,-0.383 0.05,-0.649 -0.033,-0.367 -0.033,-0.601 0,-0.7 l 0.1,-0.15 h 0.05 c 0.233,0.101 0.45,0.15 0.65,0.15 v 0.5 z"
     fill="url(#r)"
     id="path77"
     style="fill:url(#r);stroke-width:0.0409074" /><path
     d="m 14.85,37.1 c 0.367,0.034 0.767,0.067 1.2,0.101 0.434,0.033 0.917,0.066 1.45,0.1 0.1,0 0.183,0.017 0.25,0.05 h 0.1 c -0.2,0.101 -0.333,0.25 -0.4,0.45 l -0.65,-0.1 c -0.5,-0.033 -1.117,-0.05 -1.85,-0.05 L 14,37.7 c 0.033,-0.033 0.033,-0.084 0,-0.15 V 37.5 c -0.067,-0.1 -0.183,-0.15 -0.35,-0.15 -0.467,-0.066 -0.867,-0.1 -1.2,-0.1 -0.2,0 -0.383,0.033 -0.55,0.1 -0.233,0.034 -0.417,0.117 -0.55,0.25 -0.033,0.034 -0.067,0.067 -0.1,0.101 -0.233,0.333 -0.467,0.95 -0.7,1.85 -0.1,0.367 -0.183,0.717 -0.25,1.05 -0.033,-0.066 -0.066,-0.116 -0.1,-0.149 -0.067,-0.8 0,-1.533 0.2,-2.2 0.067,-0.267 0.167,-0.5 0.3,-0.7 0.066,-0.1 0.133,-0.2 0.2,-0.3 0,-0.033 0.017,-0.05 0.05,-0.05 0.133,-0.167 0.35,-0.267 0.65,-0.3 0.333,-0.101 0.75,-0.101 1.25,0 0.233,0.033 0.85,0.1 1.85,0.199 C 14.733,37.1 14.783,37.1 14.85,37.1 Z m 3.6,0.7 -0.1,0.05 -0.15,0.05 z"
     fill="#dfe866"
     id="path79"
     style="stroke-width:0.00154865" /><linearGradient
     id="linearGradient1135"
     x1="37.108002"
     x2="41.667999"
     y1="-21.23"
     y2="-21.23"
     gradientTransform="matrix(-0.0658,0.9978,-0.9978,-0.0658,0.50048074,-0.0338109)"
     gradientUnits="userSpaceOnUse"><stop
       stop-color="#F7F2DC"
       offset="0"
       id="stop1131" /><stop
       stop-color="#D6CAA3"
       offset="1"
       id="stop1133" /></linearGradient><path
     d="m 31.9,41.5 c 0.233,0.366 0.517,0.684 0.85,0.95 0.667,0.6 1.4,1.083 2.2,1.45 0.133,0.066 0.283,0.133 0.45,0.199 0.267,0.067 0.5,0.134 0.699,0.2 0.101,0.033 0.2,0.05 0.301,0.05 0.066,0.034 0.133,0.051 0.199,0.051 0.134,0.033 -2.766,-0.167 -8.7,-0.601 -0.833,-0.066 -3.75,-0.35 -8.75,-0.85 -0.133,-0.066 -0.283,-0.217 -0.45,-0.45 -0.333,-0.434 -0.55,-1.033 -0.65,-1.8 -0.066,-0.767 -0.033,-1.5 0.1,-2.2 l 0.1,-0.35 c 0.767,0.033 1.55,0.083 2.35,0.149 0.933,0.033 1.85,0.066 2.75,0.101 1.3,0.066 2.55,0.116 3.75,0.149 1.1,0.033 2.167,0.05 3.2,0.05 h 1.1 l -0.05,1.25 C 31.417,40.45 31.6,41 31.9,41.5 Z M 10.2,40.45 c 0,0.133 0.017,0.267 0.05,0.399 l 0.15,1.2 C 8.5,41.849 6.433,41.65 4.2,41.449 4,41.416 3.75,41.315 3.45,41.149 2.817,40.815 2.2,40.315 1.6,39.649 1.033,38.982 0.7,38.166 0.6,37.199 L 0.65,35.949 0.9,36.1 c 1.7,0.367 3.6,0.684 5.7,0.95 h 0.05 l 0.7,0.101 c 0.033,0 0.083,0.017 0.15,0.05 1.133,0.166 2.2,0.283 3.2,0.35 -0.133,0.2 -0.233,0.434 -0.3,0.7 -0.2,0.666 -0.267,1.399 -0.2,2.199 z"
     fill="url(#s)"
     id="path86"
     style="fill:url(#s);stroke-width:0.0409074" /><path
     d="m 18.5,37.75 2.55,0.15 c 0.767,0.033 1.55,0.066 2.35,0.1 0.567,0.033 1.15,0.066 1.75,0.1 0.6,0 1.184,0.017 1.75,0.051 1.233,0.033 2.367,0.066 3.4,0.1 0.6,0.033 1.184,0.05 1.75,0.05 l -0.5,0.2 -0.15,0.1 h -1.1 c -1.033,0 -2.1,-0.017 -3.2,-0.05 -1.2,-0.033 -2.45,-0.083 -3.75,-0.149 -0.9,-0.034 -1.817,-0.067 -2.75,-0.101 -0.8,-0.066 -1.583,-0.116 -2.35,-0.149 l 0.1,-0.301 0.1,-0.05 z m -11.75,-1 c 0.367,0.066 0.733,0.116 1.1,0.15 1,0.133 2.017,0.25 3.05,0.35 -0.066,0.1 -0.133,0.2 -0.2,0.3 C 9.7,37.484 8.633,37.366 7.5,37.2 7.433,37.167 7.383,37.15 7.35,37.15 L 6.65,37.049 H 6.6 C 4.5,36.782 2.6,36.466 0.9,36.099 L 0.65,35.95 1.15,35.75 3.9,36.3 c 0.933,0.167 1.883,0.316 2.85,0.45 z"
     fill="#fff8e0"
     id="path88"
     style="stroke-width:0.00154865" /><path
     d="m 16.85,47.85 v -1.199 c -0.033,-0.5 -0.067,-1.051 -0.1,-1.65 -0.033,-0.167 -0.05,-0.333 -0.05,-0.5 -0.034,-0.533 -0.034,-1.1 0,-1.7 0,-0.6 0.05,-1.217 0.15,-1.85 0.033,-0.2 0.066,-0.384 0.1,-0.55 0.167,-0.867 0.283,-1.517 0.35,-1.95 v -0.25 c 0.034,-0.134 0.083,-0.267 0.15,-0.4 0.066,-0.2 0.2,-0.35 0.4,-0.45 0.066,0 0.117,0.017 0.15,0.051 h 0.15 l 0.2,0.05 c 0.066,0.033 0.133,0.066 0.2,0.1 v 0.05 c 0.034,0 0.067,0.017 0.1,0.051 v 0.05 l -0.15,0.05 -0.05,0.05 -0.25,0.097 -0.15,0.05 c -0.066,0.033 -0.117,0.1 -0.15,0.2 -0.033,0.066 -0.066,0.166 -0.1,0.3 -0.033,0.133 -0.083,0.316 -0.15,0.55 l -0.1,0.5 c -0.033,0.134 -0.05,0.267 -0.05,0.4 l -0.05,0.3 v 0.1 c -0.034,0 -0.05,0.017 -0.05,0.05 v 0.15 l -0.2,1.7 v 0.549 l 0.1,2.15 v 0.1 l 0.05,0.9 v 0.699 l 0.05,1.351 c -0.066,-0.033 -0.133,-0.05 -0.2,-0.05 z m -6.5,-1 c 0.667,-0.267 1.383,-0.449 2.15,-0.55 0.4,-0.066 0.733,-0.1 1,-0.1 l 0.25,0.399 c -0.167,0.034 -0.533,0.051 -1.1,0.051 -0.333,0 -0.833,0.066 -1.5,0.199 L 10.3,47 c 0,-0.033 0.017,-0.083 0.05,-0.15 z"
     fill="#697529"
     id="path90"
     style="stroke-width:0.00154865" /><linearGradient
     id="linearGradient1144"
     x1="37.263"
     x2="42.014999"
     y1="-19.51"
     y2="-19.51"
     gradientTransform="matrix(-0.0316,0.9995,-0.9995,-0.0316,0.49913687,-0.03403536)"
     gradientUnits="userSpaceOnUse"><stop
       stop-color="#8C897C"
       offset="0"
       id="stop1140" /><stop
       stop-color="#D6CAA3"
       offset="1"
       id="stop1142" /></linearGradient><path
     d="m 18.35,37.85 -0.1,0.301 -0.1,0.35 c -0.133,0.7 -0.167,1.434 -0.1,2.2 0.1,0.767 0.317,1.366 0.65,1.8 0.167,0.233 0.316,0.384 0.45,0.45 -0.566,-0.033 -1.133,-0.084 -1.7,-0.15 -0.1,0 -0.184,-0.017 -0.25,-0.05 v -0.55 l 0.2,-1.7 v -0.15 c 0,-0.033 0.017,-0.05 0.05,-0.05 v -0.1 l 0.05,-0.3 c 0,-0.134 0.017,-0.267 0.05,-0.4 l 0.1,-0.5 c 0.067,-0.233 0.117,-0.417 0.15,-0.55 0.034,-0.134 0.067,-0.233 0.1,-0.3 0.033,-0.101 0.083,-0.167 0.15,-0.2 l 0.15,-0.05 z"
     fill="url(#t)"
     id="path97"
     style="fill:url(#t);stroke-width:0.0409074" /><linearGradient
     id="linearGradient1151"
     x1="36.766998"
     x2="46.646999"
     y1="-15.156"
     y2="-15.156"
     gradientTransform="matrix(-0.0329,0.9995,-0.9995,-0.0329,0.50096622,-0.03380375)"
     gradientUnits="userSpaceOnUse"><stop
       stop-color="#C8D146"
       offset="0"
       id="stop1147" /><stop
       stop-color="#7D8523"
       offset="1"
       id="stop1149" /></linearGradient><path
     d="m 17.3,38.45 h -2.8 c -0.567,0 -0.983,0.017 -1.25,0.05 -0.167,0 -0.25,0.033 -0.25,0.1 -0.067,0.134 0.05,0.25 0.35,0.351 0.933,0.467 1.55,0.75 1.85,0.85 0.566,0.233 1.15,0.434 1.75,0.601 -0.034,0.166 -0.067,0.35 -0.1,0.55 -0.1,0.633 -0.15,1.25 -0.15,1.85 -0.167,0.033 -0.3,0.066 -0.4,0.101 -0.267,0.066 -0.566,0.116 -0.9,0.149 h -0.2 c -0.034,0.033 -0.05,0.084 -0.05,0.15 -0.1,0.2 -0.316,0.434 -0.65,0.7 -0.133,0.066 -0.267,0.1 -0.4,0.1 -0.067,0.033 -0.217,0.033 -0.45,0 -0.3,0 -0.517,-0.017 -0.65,-0.05 -0.267,-0.066 -0.467,-0.167 -0.6,-0.3 -0.267,-0.233 -0.433,-0.65 -0.5,-1.25 v -0.35 c -0.033,-0.133 -0.083,-0.217 -0.15,-0.25 -0.233,-0.133 -0.4,-0.233 -0.5,-0.3 -0.2,-0.1 -0.367,-0.217 -0.5,-0.35 -0.2,-0.233 -0.35,-0.417 -0.45,-0.551 0.067,-0.333 0.15,-0.683 0.25,-1.05 0.233,-0.899 0.467,-1.517 0.7,-1.85 0.033,-0.033 0.067,-0.066 0.1,-0.101 0.133,-0.133 0.316,-0.216 0.55,-0.25 0.167,-0.066 0.35,-0.1 0.55,-0.1 0.333,0 0.733,0.033 1.2,0.1 0.167,0 0.283,0.051 0.35,0.15 v 0.05 c 0.033,0.066 0.033,0.117 0,0.15 l 0.95,-0.05 c 0.733,0 1.35,0.017 1.85,0.05 l 0.65,0.1 c -0.067,0.134 -0.117,0.267 -0.15,0.4 z"
     fill="url(#k)"
     id="path104"
     style="fill:url(#k);stroke-width:0.0409074" /><path
     d="m 16.75,45 c -0.233,0 -0.5,-0.017 -0.8,-0.05 -0.6,-0.033 -1.05,-0.066 -1.35,-0.101 -0.233,-0.033 -0.617,-0.05 -1.15,-0.05 H 12.4 c -0.133,0.033 -0.316,0.084 -0.55,0.15 -0.267,0.1 -0.434,0.166 -0.5,0.2 -0.133,0.033 -0.35,0.133 -0.65,0.3 h -0.05 c 0.033,-0.101 0.05,-0.217 0.05,-0.351 l -0.05,-1.5 -0.05,-0.05 V 43.4 l -0.2,-1.351 -0.15,-1.2 C 10.217,40.716 10.2,40.582 10.2,40.45 c 0.033,0.033 0.066,0.083 0.1,0.149 0.1,0.134 0.25,0.317 0.45,0.551 0.133,0.133 0.3,0.25 0.5,0.35 0.1,0.066 0.267,0.167 0.5,0.3 0.067,0.033 0.117,0.117 0.15,0.25 v 0.35 c 0.067,0.6 0.233,1.017 0.5,1.25 0.133,0.133 0.333,0.233 0.6,0.3 0.133,0.033 0.35,0.05 0.65,0.05 0.233,0.033 0.383,0.033 0.45,0 0.133,0 0.267,-0.033 0.4,-0.1 0.333,-0.267 0.55,-0.5 0.65,-0.7 0,-0.066 0.017,-0.117 0.05,-0.15 h 0.2 c 0.333,-0.033 0.633,-0.083 0.9,-0.149 0.1,-0.034 0.233,-0.067 0.4,-0.101 -0.034,0.601 -0.034,1.167 0,1.7 0,0.167 0.017,0.333 0.05,0.5 z"
     fill="#929937"
     id="path106"
     style="stroke-width:0.00154865" /><path
     d="m 16.95,40.4 c -0.6,-0.167 -1.184,-0.367 -1.75,-0.601 -0.3,-0.1 -0.917,-0.383 -1.85,-0.85 -0.3,-0.101 -0.417,-0.217 -0.35,-0.351 0,-0.066 0.083,-0.1 0.25,-0.1 0.267,-0.033 0.683,-0.05 1.25,-0.05 h 2.8 c -0.067,0.436 -0.183,1.085 -0.35,1.952 z"
     fill="#aab23f"
     id="path108"
     style="stroke-width:0.00154865" /><path
     d="M 13.75,46.6 13.5,46.2 c -0.267,0 -0.6,0.033 -1,0.1 -0.767,0.101 -1.483,0.283 -2.15,0.55 0.066,-0.199 0.133,-0.5 0.2,-0.899 0.267,0 0.434,0.033 0.5,0.1 0.034,0.033 0.05,0.066 0.05,0.101 0.033,0.033 0.1,0.05 0.2,0.05 0.3,0.066 0.784,0.017 1.45,-0.15 0.233,-0.066 0.483,-0.1 0.75,-0.1 0.3,0 0.533,0.05 0.7,0.149 0.066,0.067 0.167,0.184 0.3,0.351 0.1,0.133 0.2,0.233 0.3,0.3 0.133,0.1 0.284,0.15 0.45,0.15 0.133,0.033 0.317,0.05 0.55,0.05 0.2,-0.033 0.434,-0.101 0.7,-0.2 0.1,-0.033 0.217,-0.066 0.35,-0.1 v 1.199 C 16.416,47.785 16.033,47.718 15.7,47.652 15.4,47.585 14.983,47.385 14.45,47.051 Z"
     fill="#a3b541"
     id="path110"
     style="stroke-width:0.00154865" /><path
     d="m 10.65,45.45 h 0.05 c 0.3,-0.167 0.517,-0.267 0.65,-0.3 0.066,-0.034 0.233,-0.101 0.5,-0.2 0.233,-0.066 0.417,-0.117 0.55,-0.15 h 1.05 c 0.533,0 0.917,0.017 1.15,0.05 0.3,0.034 0.75,0.067 1.35,0.101 0.3,0.033 0.566,0.05 0.8,0.05 0.033,0.6 0.067,1.15 0.1,1.65 -0.133,0.033 -0.25,0.066 -0.35,0.1 -0.267,0.1 -0.5,0.167 -0.7,0.2 -0.233,0 -0.417,-0.017 -0.55,-0.05 -0.167,0 -0.317,-0.051 -0.45,-0.15 -0.1,-0.066 -0.2,-0.167 -0.3,-0.3 -0.133,-0.167 -0.233,-0.283 -0.3,-0.351 -0.167,-0.1 -0.4,-0.149 -0.7,-0.149 -0.267,0 -0.517,0.033 -0.75,0.1 -0.667,0.167 -1.15,0.217 -1.45,0.15 -0.1,0 -0.167,-0.017 -0.2,-0.05 0,-0.034 -0.017,-0.067 -0.05,-0.101 -0.066,-0.066 -0.233,-0.1 -0.5,-0.1 z"
     fill="#868c32"
     id="path112"
     style="stroke-width:0.00154865" /><path
     d="m 22.55,31.75 c 0.067,-0.2 0.167,-0.4 0.3,-0.6 0.2,-0.301 0.5,-0.601 0.9,-0.9 0.567,-0.4 1.2,-0.733 1.9,-1 0.267,-0.1 0.333,-0.184 0.2,-0.25 -0.133,-0.066 -0.3,-0.066 -0.5,0 -0.967,0.333 -1.8,0.8 -2.5,1.4 -0.067,0.066 -0.133,0.116 -0.2,0.149 -0.066,-0.1 -0.15,-0.184 -0.25,-0.25 l -0.65,-0.45 -0.1,-0.449 c 0.2,-0.233 0.333,-0.384 0.4,-0.45 0.034,-0.033 0.067,-0.05 0.1,-0.05 l 3.1,-0.4 1.05,0.6 c 0,0.134 0.017,0.334 0.05,0.601 0.066,0.267 0.083,0.467 0.05,0.6 0,0.2 -0.066,0.434 -0.2,0.7 -0.133,0.3 -0.217,0.5 -0.25,0.6 -0.1,0.034 -0.167,0.067 -0.2,0.101 -0.967,0.6 -1.633,0.967 -2,1.1 C 22.817,33.167 22.4,32.9 22.5,32 c 0,-0.1 0.017,-0.184 0.05,-0.25 z"
     fill="#d9d0b0"
     id="path114"
     style="stroke-width:0.00154865" /><path
     d="m 25.25,28.5 -3.1,0.4 c 0.167,-0.167 0.3,-0.351 0.4,-0.551 0.133,-0.233 0.2,-0.466 0.2,-0.699 V 27.5 h 1.2 l 2.85,0.85 h -0.1 z"
     fill="#e6dcbc"
     id="path116"
     style="stroke-width:0.00154865" /></g></svg>
