<?xml version="1.0" encoding="UTF-8" standalone="no"?>
<svg
   xmlns:dc="http://purl.org/dc/elements/1.1/"
   xmlns:cc="http://creativecommons.org/ns#"
   xmlns:rdf="http://www.w3.org/1999/02/22-rdf-syntax-ns#"
   xmlns:svg="http://www.w3.org/2000/svg"
   xmlns="http://www.w3.org/2000/svg"
   xmlns:sodipodi="http://sodipodi.sourceforge.net/DTD/sodipodi-0.dtd"
   xmlns:inkscape="http://www.inkscape.org/namespaces/inkscape"
   width="1000"
   height="1000"
   viewBox="0 0 264.58334 264.58334"
   version="1.1"
   id="svg8"
   inkscape:version="1.0.2-2 (e86c870879, 2021-01-15)"
   sodipodi:docname="logo.svg"
   inkscape:export-filename="C:\Users\Jeovani\Desktop\logo\logo-1.png"
   inkscape:export-xdpi="9.6000004"
   inkscape:export-ydpi="9.6000004">
  <defs
     id="defs2" />
  <sodipodi:namedview
     id="base"
     pagecolor="#ffffff"
     bordercolor="#666666"
     borderopacity="1.0"
     inkscape:pageopacity="0.0"
     inkscape:pageshadow="2"
     inkscape:zoom="0.49497475"
     inkscape:cx="411.45176"
     inkscape:cy="517.1729"
     inkscape:document-units="px"
     inkscape:current-layer="layer1"
     inkscape:document-rotation="0"
     showgrid="false"
     units="px"
     inkscape:window-width="1920"
     inkscape:window-height="1017"
     inkscape:window-x="-8"
     inkscape:window-y="-8"
     inkscape:window-maximized="1"
     showguides="true"
     inkscape:guide-bbox="true"
     inkscape:snap-others="false" />
  <metadata
     id="metadata5">
    <rdf:RDF>
      <cc:Work
         rdf:about="">
        <dc:format>image/svg+xml</dc:format>
        <dc:type
           rdf:resource="http://purl.org/dc/dcmitype/StillImage" />
        <dc:title />
      </cc:Work>
    </rdf:RDF>
  </metadata>
  <g
     inkscape:label="Capa 1"
     inkscape:groupmode="layer"
     id="layer1">
    <ellipse
       style="fill:#004455;fill-rule:evenodd;stroke:#00de7a;stroke-width:1.95792;stroke-miterlimit:4;stroke-dasharray:none;stroke-opacity:1"
       id="path845"
       cx="142.98921"
       cy="132.2917"
       rx="116.79678"
       ry="119.24669" />
    <path
       d="m 24.864542,144.20071 a 20.546259,20.546259 0 0 0 -3.197113,40.96588 l 16.405812,1.28034 47.188791,3.68282 8.572786,0.67886 a 3.6803401,3.6803401 0 0 0 3.953665,-3.38122 l 2.614127,-33.62205 a 3.6526684,3.6526684 0 0 0 -3.37217,-3.94309 l -8.562326,-0.68785 z"
       fill="#4285f4"
       id="path24-8"
       style="fill:#00de7a;fill-opacity:1;stroke-width:0.264583" />
    <circle
       style="fill:#ffffff;fill-opacity:1;fill-rule:evenodd;stroke:none;stroke-width:1.95792;stroke-miterlimit:4;stroke-dasharray:none;stroke-opacity:1"
       id="path853-5"
       cx="143.79102"
       cy="72.162773"
       r="10.958052" />
    <circle
       style="fill:#ffffff;fill-opacity:1;fill-rule:evenodd;stroke:none;stroke-width:1.95792;stroke-miterlimit:4;stroke-dasharray:none;stroke-opacity:1"
       id="path853"
       cx="89.535301"
       cy="99.691536"
       r="10.958052" />
    <path
       d="m 131.81011,45.109575 0.16643,-22.117343 a 2.3439274,2.3439274 0 0 0 -3.81803,-1.479051 2.3237645,2.3237645 0 0 0 -0.80453,1.411493 L 127.2115,45.3705 A 69.491138,69.491138 0 0 0 77.727212,73.446693 L 58.408682,62.094681 a 2.3388865,2.3388865 0 0 0 -2.313665,4.001914 L 75.146488,77.263924 A 65.297276,65.297276 0 0 0 71.498031,139.44518 L 187.07847,73.867724 A 65.31744,65.31744 0 0 0 131.8122,45.113218 Z M 93.318312,105.29787 a 5.5447741,5.5447741 0 0 1 -8.070507,-6.287525 5.5346929,5.5346929 0 1 1 8.070507,6.287525 z M 146.52929,75.107338 a 5.5372313,5.5372313 0 1 1 -5.48323,-9.621738 5.5372313,5.5372313 0 0 1 5.48323,9.621738 z"
       fill="#00de7a"
       id="path2"
       style="stroke-width:0.264583" />
    <path
       d="M 255.78601,69.656665 A 20.546259,20.546259 0 0 0 226.73069,40.601345 L 215.09476,52.23728 181.62575,85.706236 175.538,91.780175 a 3.6803401,3.6803401 0 0 0 0,5.20232 l 23.85306,23.839175 a 3.6526684,3.6526684 0 0 0 5.18839,0 l 6.08781,-6.06012 z"
       fill="#4285f4"
       id="path24"
       style="fill:#00de7a;fill-opacity:1;stroke-width:0.264583" />
    <g
       transform="matrix(31.224616,0,0,31.196206,-3385.5719,-4144.5855)"
       style="display:inline;stroke:#c92a2a;stroke-width:0.0627329;stroke-linecap:round;stroke-linejoin:round;stroke-miterlimit:4;stroke-dasharray:none;stroke-opacity:1"
       id="g907">
      <path
         style="fill:#e03131;fill-opacity:1;stroke:#c92a2a;stroke-width:0.0627329;stroke-linecap:round;stroke-linejoin:round;stroke-miterlimit:4;stroke-dasharray:none;stroke-opacity:1"
         d="m 112.53011,138.40174 3.74246,-2.15094 v 2.08806 l -3.73103,2.10242 z"
         id="path899"
         sodipodi:nodetypes="ccccc" />
      <path
         style="fill:#f03e3e;fill-opacity:1;stroke:#c92a2a;stroke-width:0.0627329;stroke-linecap:round;stroke-linejoin:round;stroke-miterlimit:4;stroke-dasharray:none;stroke-opacity:1"
         d="m 112.53011,138.40174 -1.79395,-1.09763 v 2.02654 l 1.80538,1.11063 z"
         id="path901"
         sodipodi:nodetypes="ccccc" />
      <path
         style="fill:#f03e3e;fill-opacity:1;stroke:#c92a2a;stroke-width:0.0627329;stroke-linecap:round;stroke-linejoin:round;stroke-miterlimit:4;stroke-dasharray:none;stroke-opacity:1"
         d="m 110.73616,137.30411 3.63874,-2.09133 1.89767,1.03802 -3.74246,2.15094 z"
         id="path903" />
      <path
         style="display:inline;fill:none;stroke:#c92a2a;stroke-width:0.0627329;stroke-linecap:round;stroke-linejoin:round;stroke-miterlimit:4;stroke-dasharray:none;stroke-opacity:1"
         d="m 110.73616,138.08566 1.79797,1.12769 3.73844,-2.24296"
         id="path905"
         sodipodi:nodetypes="ccc" />
    </g>
    <path
       style="fill:#e03131;fill-opacity:1;stroke:#e03131;stroke-width:1.95792;stroke-linecap:butt;stroke-linejoin:miter;stroke-miterlimit:4;stroke-dasharray:none;stroke-opacity:1"
       d="M 133.77742,139.07744 216.73034,90.377847 205.3229,84.179469 125.64453,133.96403 Z"
       id="path945"
       sodipodi:nodetypes="ccccc" />
    <path
       sodipodi:nodetypes="ccccc"
       id="path919"
       d="m 179.16973,161.7783 v 23.23403 l 14.77776,-8.48561 -0.17427,-24.11138 z"
       style="fill:#ffba03;fill-opacity:1;stroke:#212529;stroke-width:1.95792;stroke-linecap:butt;stroke-linejoin:miter;stroke-miterlimit:4;stroke-dasharray:none;stroke-opacity:1" />
    <g
       style="stroke:#212529;stroke-width:0.772887;stroke-linecap:round;stroke-linejoin:round;stroke-miterlimit:4;stroke-dasharray:none;stroke-opacity:1"
       transform="matrix(2.540145,0,0,2.5263563,-87.567754,-203.68598)"
       id="g941">
      <path
         style="fill:#495057;fill-opacity:1;stroke:#212529;stroke-width:0.772887;stroke-linecap:round;stroke-linejoin:round;stroke-miterlimit:4;stroke-dasharray:none;stroke-opacity:1"
         d="m 83.987363,133.77425 3.175,2.11668 -0.01521,-13.09306 -3.159783,-1.9264 z"
         id="path933" />
      <path
         style="fill:#343a40;fill-opacity:1;stroke:#212529;stroke-width:0.772887;stroke-linecap:round;stroke-linejoin:round;stroke-miterlimit:4;stroke-dasharray:none;stroke-opacity:1"
         d="m 87.162365,135.89093 v -12.90278 l 18.490505,-10.67549 v 12.59718 l -3.43519,1.98331 v -8.84649 l -11.895531,6.86789 v 9.32922 z"
         id="path935" />
      <path
         style="fill:#495057;fill-opacity:1;stroke:#212529;stroke-width:0.772887;stroke-linecap:round;stroke-linejoin:round;stroke-miterlimit:4;stroke-dasharray:none;stroke-opacity:1"
         d="m 83.987368,120.87147 3.174995,2.11668 18.490497,-10.67549 -3.175,-2.11668 z"
         id="path937" />
      <path
         style="fill:#495057;fill-opacity:1;stroke:#212529;stroke-width:0.772887;stroke-linecap:round;stroke-linejoin:round;stroke-miterlimit:4;stroke-dasharray:none;stroke-opacity:1"
         d="m 99.042681,119.87975 v 4.89672 l 3.174999,2.11668 v -8.84649 z"
         id="path939" />
    </g>
  </g>
</svg>
