<?xml version="1.0" encoding="UTF-8" standalone="no"?>
<svg
   width="917"
   height="853"
   viewBox="0 0 242.62292 225.68959"
   version="1.1"
   id="svg8"
   inkscape:version="1.2.2 (732a01da63, 2022-12-09)"
   sodipodi:docname="logo_trim.svg"
   inkscape:export-filename="C:\Users\Jeovani\Desktop\logo\logo-1.png"
   inkscape:export-xdpi="9.6000004"
   inkscape:export-ydpi="9.6000004"
   xmlns:inkscape="http://www.inkscape.org/namespaces/inkscape"
   xmlns:sodipodi="http://sodipodi.sourceforge.net/DTD/sodipodi-0.dtd"
   xmlns="http://www.w3.org/2000/svg"
   xmlns:svg="http://www.w3.org/2000/svg"
   xmlns:rdf="http://www.w3.org/1999/02/22-rdf-syntax-ns#"
   xmlns:cc="http://creativecommons.org/ns#"
   xmlns:dc="http://purl.org/dc/elements/1.1/">
  <defs
     id="defs2" />
  <sodipodi:namedview
     id="base"
     pagecolor="#ffffff"
     bordercolor="#666666"
     borderopacity="1.0"
     inkscape:pageopacity="0.0"
     inkscape:pageshadow="2"
     inkscape:zoom="0.49497475"
     inkscape:cx="272.74119"
     inkscape:cy="414.16254"
     inkscape:document-units="px"
     inkscape:current-layer="layer1"
     inkscape:document-rotation="0"
     showgrid="false"
     units="px"
     inkscape:window-width="1920"
     inkscape:window-height="1017"
     inkscape:window-x="-8"
     inkscape:window-y="-8"
     inkscape:window-maximized="1"
     showguides="true"
     inkscape:guide-bbox="true"
     inkscape:snap-others="false"
     inkscape:showpageshadow="0"
     inkscape:pagecheckerboard="0"
     inkscape:deskcolor="#d1d1d1" />
  <metadata
     id="metadata5">
    <rdf:RDF>
      <cc:Work
         rdf:about="">
        <dc:format>image/svg+xml</dc:format>
        <dc:type
           rdf:resource="http://purl.org/dc/dcmitype/StillImage" />
      </cc:Work>
    </rdf:RDF>
  </metadata>
  <g
     inkscape:label="Capa 1"
     inkscape:groupmode="layer"
     id="layer1">
    <ellipse
       style="fill:#004455;fill-rule:evenodd;stroke:#00de7a;stroke-width:1.9579;stroke-miterlimit:4;stroke-dasharray:none;stroke-opacity:1"
       id="path845"
       cx="131.33926"
       cy="112.84479"
       rx="109.53127"
       ry="111.86584" />
    <path
       d="m 20.562954,124.01698 a 19.268133,19.274579 0 0 0 -2.998228,38.43012 l 15.385256,1.20115 44.253269,3.45484 8.039489,0.63685 a 3.4513933,3.4525476 0 0 0 3.707713,-3.17203 l 2.451508,-31.54077 a 3.4254439,3.4265905 0 0 0 -3.162391,-3.69923 l -8.029683,-0.64532 z"
       fill="#4285f4"
       id="path24-8"
       style="fill:#00de7a;fill-opacity:1;stroke-width:0.264582" />
    <ellipse
       style="fill:#ffffff;fill-opacity:1;fill-rule:evenodd;stroke:none;stroke-width:1.9579;stroke-miterlimit:4;stroke-dasharray:none;stroke-opacity:1"
       id="path853-5"
       cx="132.09161"
       cy="56.437546"
       rx="10.276392"
       ry="10.27981" />
    <ellipse
       style="fill:#ffffff;fill-opacity:1;fill-rule:evenodd;stroke:none;stroke-width:1.9579;stroke-miterlimit:4;stroke-dasharray:none;stroke-opacity:1"
       id="path853"
       cx="81.210564"
       cy="82.262383"
       rx="10.276392"
       ry="10.27981" />
    <path
       d="m 120.85553,31.058949 0.15617,-20.748416 a 2.1981175,2.1988514 0 0 0 -3.5806,-1.3874788 2.179209,2.1799363 0 0 0 -0.7542,1.3241008 l -0.134,21.056562 A 65.168235,65.190052 0 0 0 70.137152,57.64216 L 52.020378,46.992777 a 2.1933879,2.1941232 0 0 0 -2.169724,3.754217 L 67.716973,61.223128 A 61.235269,61.255759 0 0 0 64.295471,119.55584 L 172.68595,58.037139 A 61.254176,61.274671 0 0 0 120.85758,31.06237 Z m -36.097163,56.4631 a 5.1998459,5.2015842 0 0 1 -7.568463,-5.89847 5.190392,5.1921281 0 1 1 7.568463,5.89847 z M 134.6592,59.20002 a 5.1927712,5.1945106 0 1 1 -5.14198,-9.026203 5.1927712,5.1945106 0 0 1 5.14198,9.026203 z"
       fill="#00de7a"
       id="path2"
       style="stroke-width:0.264582" />
    <path
       d="M 237.11918,54.086708 A 19.268133,19.274579 0 0 0 209.87141,26.829757 l -10.9121,10.91573 -31.38681,31.397421 -5.70905,5.697999 a 3.4513933,3.4525476 0 0 0 0,4.880331 l 22.36932,22.363772 a 3.4254439,3.4265905 0 0 0 4.86552,0 l 5.70911,-5.685201 z"
       fill="#4285f4"
       id="path24"
       style="fill:#00de7a;fill-opacity:1;stroke-width:0.264582" />
    <g
       transform="matrix(29.282219,0,0,29.26536,-3177.7186,-3899.3178)"
       style="display:inline;stroke:#c92a2a;stroke-width:0.0668819;stroke-linecap:round;stroke-linejoin:round;stroke-miterlimit:4;stroke-dasharray:none;stroke-opacity:1"
       id="g907">
      <path
         style="fill:#e03131;fill-opacity:1;stroke:#c92a2a;stroke-width:0.0668819;stroke-linecap:round;stroke-linejoin:round;stroke-miterlimit:4;stroke-dasharray:none;stroke-opacity:1"
         d="m 112.53011,138.40174 3.74246,-2.15094 v 2.08806 l -3.73103,2.10242 z"
         id="path899"
         sodipodi:nodetypes="ccccc" />
      <path
         style="fill:#f03e3e;fill-opacity:1;stroke:#c92a2a;stroke-width:0.0668819;stroke-linecap:round;stroke-linejoin:round;stroke-miterlimit:4;stroke-dasharray:none;stroke-opacity:1"
         d="m 112.53011,138.40174 -1.79395,-1.09763 v 2.02654 l 1.80538,1.11063 z"
         id="path901"
         sodipodi:nodetypes="ccccc" />
      <path
         style="fill:#f03e3e;fill-opacity:1;stroke:#c92a2a;stroke-width:0.0668819;stroke-linecap:round;stroke-linejoin:round;stroke-miterlimit:4;stroke-dasharray:none;stroke-opacity:1"
         d="m 110.73616,137.30411 3.63874,-2.09133 1.89767,1.03802 -3.74246,2.15094 z"
         id="path903" />
      <path
         style="display:inline;fill:none;stroke:#c92a2a;stroke-width:0.0668819;stroke-linecap:round;stroke-linejoin:round;stroke-miterlimit:4;stroke-dasharray:none;stroke-opacity:1"
         d="m 110.73616,138.08566 1.79797,1.12769 3.73844,-2.24296"
         id="path905"
         sodipodi:nodetypes="ccc" />
    </g>
    <path
       style="fill:#e03131;fill-opacity:1;stroke:#e03131;stroke-width:1.9579;stroke-linecap:butt;stroke-linejoin:miter;stroke-miterlimit:4;stroke-dasharray:none;stroke-opacity:1"
       d="M 122.70075,119.21093 200.49327,73.525386 189.79531,67.710647 115.0734,114.41376 Z"
       id="path945"
       sodipodi:nodetypes="ccccc" />
    <path
       sodipodi:nodetypes="ccccc"
       id="path919"
       d="m 165.26921,140.50649 v 21.79624 l 13.85853,-7.96075 -0.16364,-22.61906 z"
       style="fill:#ffba03;fill-opacity:1;stroke:#212529;stroke-width:1.9579;stroke-linecap:butt;stroke-linejoin:miter;stroke-miterlimit:4;stroke-dasharray:none;stroke-opacity:1" />
    <g
       style="stroke:#212529;stroke-width:0.824017;stroke-linecap:round;stroke-linejoin:round;stroke-miterlimit:4;stroke-dasharray:none;stroke-opacity:1"
       transform="matrix(2.3821275,0,0,2.369988,-84.875157,-202.33747)"
       id="g941">
      <path
         style="fill:#495057;fill-opacity:1;stroke:#212529;stroke-width:0.824017;stroke-linecap:round;stroke-linejoin:round;stroke-miterlimit:4;stroke-dasharray:none;stroke-opacity:1"
         d="m 83.987363,133.77425 3.175,2.11668 -0.01521,-13.09306 -3.159783,-1.9264 z"
         id="path933" />
      <path
         style="fill:#343a40;fill-opacity:1;stroke:#212529;stroke-width:0.824017;stroke-linecap:round;stroke-linejoin:round;stroke-miterlimit:4;stroke-dasharray:none;stroke-opacity:1"
         d="m 87.162365,135.89093 v -12.90278 l 18.490505,-10.67549 v 12.59718 l -3.43519,1.98331 v -8.84649 l -11.895531,6.86789 v 9.32922 z"
         id="path935" />
      <path
         style="fill:#495057;fill-opacity:1;stroke:#212529;stroke-width:0.824017;stroke-linecap:round;stroke-linejoin:round;stroke-miterlimit:4;stroke-dasharray:none;stroke-opacity:1"
         d="m 83.987368,120.87147 3.174995,2.11668 18.490497,-10.67549 -3.175,-2.11668 z"
         id="path937" />
      <path
         style="fill:#495057;fill-opacity:1;stroke:#212529;stroke-width:0.824017;stroke-linecap:round;stroke-linejoin:round;stroke-miterlimit:4;stroke-dasharray:none;stroke-opacity:1"
         d="m 99.042681,119.87975 v 4.89672 l 3.174999,2.11668 v -8.84649 z"
         id="path939" />
    </g>
  </g>
</svg>
