<?xml version="1.0" encoding="UTF-8" standalone="no"?>
<svg
   xmlns:dc="http://purl.org/dc/elements/1.1/"
   xmlns:cc="http://creativecommons.org/ns#"
   xmlns:rdf="http://www.w3.org/1999/02/22-rdf-syntax-ns#"
   xmlns:svg="http://www.w3.org/2000/svg"
   xmlns="http://www.w3.org/2000/svg"
   xmlns:sodipodi="http://sodipodi.sourceforge.net/DTD/sodipodi-0.dtd"
   xmlns:inkscape="http://www.inkscape.org/namespaces/inkscape"
   width="900"
   height="320"
   viewBox="0 0 238.12501 84.666669"
   version="1.1"
   id="svg8"
   inkscape:version="1.0.2-2 (e86c870879, 2021-01-15)"
   sodipodi:docname="logo-text.svg"
   inkscape:export-filename="C:\Users\Jeovani\Desktop\logo\logo-1.png"
   inkscape:export-xdpi="9.6000004"
   inkscape:export-ydpi="9.6000004">
  <defs
     id="defs2">
    <rect
       x="99.029765"
       y="91.470241"
       width="150.43453"
       height="108.10119"
       id="rect864" />
  </defs>
  <sodipodi:namedview
     id="base"
     pagecolor="#ffffff"
     bordercolor="#666666"
     borderopacity="1.0"
     inkscape:pageopacity="0.0"
     inkscape:pageshadow="2"
     inkscape:zoom="0.7"
     inkscape:cx="554.87062"
     inkscape:cy="300.24666"
     inkscape:document-units="px"
     inkscape:current-layer="layer1"
     inkscape:document-rotation="0"
     showgrid="false"
     units="px"
     inkscape:window-width="1920"
     inkscape:window-height="1017"
     inkscape:window-x="-8"
     inkscape:window-y="-8"
     inkscape:window-maximized="1"
     showguides="true"
     inkscape:guide-bbox="true"
     inkscape:snap-others="false" />
  <metadata
     id="metadata5">
    <rdf:RDF>
      <cc:Work
         rdf:about="">
        <dc:format>image/svg+xml</dc:format>
        <dc:type
           rdf:resource="http://purl.org/dc/dcmitype/StillImage" />
        <dc:title></dc:title>
      </cc:Work>
    </rdf:RDF>
  </metadata>
  <g
     inkscape:label="Capa 1"
     inkscape:groupmode="layer"
     id="layer1">
    <g
       aria-label="Android Utils"
       id="text856"
       style="font-style:normal;font-variant:normal;font-weight:bold;font-stretch:normal;font-size:33.6253px;line-height:1;font-family:Calibri;-inkscape-font-specification:'Calibri Bold';letter-spacing:0px;word-spacing:0px;fill:#000000;fill-opacity:1;stroke:none;stroke-width:0.396115"
       transform="matrix(0.66794226,0,0,0.66794226,39.535641,14.05715)">
      <path
         d="M 43.651862,36.846558 H 32.552886 l 8.70186,-25.05479 h 15.811116 l 8.70186,25.05479 H 54.685164 l -1.444837,-4.236 H 45.0967 Z M 47.116188,26.69986 h 4.104651 l -2.052326,-6.222651 z"
         style="font-style:normal;font-variant:normal;font-weight:normal;font-stretch:normal;font-family:'Gill Sans Ultra Bold';-inkscape-font-specification:'Gill Sans Ultra Bold, ';text-align:end;text-anchor:end;stroke-width:0.396115"
         id="path849" />
      <path
         d="m 77.818977,17.078558 v 2.479209 q 2.561302,-2.643395 6.124139,-2.643395 3.464326,0 5.303209,1.937395 1.855303,1.920977 1.855303,5.713675 V 36.846558 H 81.513163 V 25.320697 q 0,-2.46279 -1.871721,-2.46279 -0.903023,0 -1.822465,0.640325 V 36.846558 H 67.672279 v -19.768 z"
         style="font-style:normal;font-variant:normal;font-weight:normal;font-stretch:normal;font-family:'Gill Sans Ultra Bold';-inkscape-font-specification:'Gill Sans Ultra Bold, ';text-align:end;text-anchor:end;stroke-width:0.396115"
         id="path851" />
      <path
         d="m 117.83112,11.791768 v 25.05479 h -12.06768 q -5.53307,0 -8.586926,-2.856838 -3.053861,-2.856837 -3.053861,-7.191348 0,-4.219581 2.774744,-7.043581 2.791163,-2.840419 6.945073,-2.840419 2.2986,0 3.82553,0.706 V 11.791768 Z M 107.668,29.655209 v -4.449442 q -0.75525,-0.492558 -1.70753,-0.492558 -0.90303,0 -1.4941,0.722419 -0.59107,0.706 -0.59107,1.789628 0,1.264232 0.706,1.855302 0.72242,0.574651 2.28219,0.574651 z"
         style="font-style:normal;font-variant:normal;font-weight:normal;font-stretch:normal;font-family:'Gill Sans Ultra Bold';-inkscape-font-specification:'Gill Sans Ultra Bold, ';text-align:end;text-anchor:end;stroke-width:0.396115"
         id="path853" />
      <path
         d="m 131.77051,21.41307 q 1.93739,-4.498698 5.61516,-4.498698 2.05233,0 3.38223,1.346326 1.32991,1.346325 1.32991,3.415069 0,2.167256 -1.31349,3.513582 -1.29707,1.329907 -3.39865,1.329907 -2.39712,0 -4.10465,-1.806047 -1.51051,1.280651 -1.51051,4.761395 v 7.371954 h -10.1467 v -19.768 h 10.1467 z"
         style="font-style:normal;font-variant:normal;font-weight:normal;font-stretch:normal;font-family:'Gill Sans Ultra Bold';-inkscape-font-specification:'Gill Sans Ultra Bold, ';text-align:end;text-anchor:end;stroke-width:0.396115"
         id="path855" />
      <path
         d="m 153.22962,37.142092 q -4.69572,0 -7.74958,-2.823999 -3.03744,-2.840419 -3.03744,-7.388372 0,-4.547954 3.0046,-7.404791 3.00461,-2.856837 7.78242,-2.856837 4.81065,0 7.81526,2.856837 3.02102,2.856837 3.02102,7.404791 0,4.531534 -3.02102,7.371953 -3.00461,2.840418 -7.81526,2.840418 z m 0,-12.675162 q -0.98511,0 -1.60902,0.640326 -0.60749,0.623907 -0.60749,1.625441 0,1.001535 0.60749,1.625442 0.62391,0.623907 1.60902,0.623907 1.00154,0 1.62544,-0.623907 0.62391,-0.623907 0.62391,-1.625442 0,-1.017953 -0.62391,-1.64186 -0.6239,-0.623907 -1.62544,-0.623907 z"
         style="font-style:normal;font-variant:normal;font-weight:normal;font-stretch:normal;font-family:'Gill Sans Ultra Bold';-inkscape-font-specification:'Gill Sans Ultra Bold, ';text-align:end;text-anchor:end;stroke-width:0.396115"
         id="path857" />
      <path
         d="m 174.52456,17.144233 q -1.18214,0 -2.03591,-0.853768 -0.85377,-0.853767 -0.85377,-2.035907 0,-1.182139 0.85377,-2.019488 0.85377,-0.837349 2.03591,-0.837349 1.18214,0 2.01948,0.837349 0.83735,0.837349 0.83735,2.019488 0,1.18214 -0.83735,2.035907 -0.83734,0.853768 -2.01948,0.853768 z m 2.92251,-0.06567 v 19.768 h -10.1467 v -19.768 q 2.00307,1.132884 5.2047,1.132884 2.97177,0 4.942,-1.132884 z"
         style="font-style:normal;font-variant:normal;font-weight:normal;font-stretch:normal;font-family:'Gill Sans Ultra Bold';-inkscape-font-specification:'Gill Sans Ultra Bold, ';text-align:end;text-anchor:end;stroke-width:0.396115"
         id="path859" />
      <path
         d="m 204.42283,11.791768 v 25.05479 h -12.06767 q -5.53307,0 -8.58693,-2.856838 -3.05386,-2.856837 -3.05386,-7.191348 0,-4.219581 2.77474,-7.043581 2.79116,-2.840419 6.94507,-2.840419 2.2986,0 3.82553,0.706 v -5.828604 z m -10.16312,17.863441 v -4.449442 q -0.75525,-0.492558 -1.70753,-0.492558 -0.90302,0 -1.49409,0.722419 -0.59107,0.706 -0.59107,1.789628 0,1.264232 0.706,1.855302 0.72242,0.574651 2.28218,0.574651 z"
         style="font-style:normal;font-variant:normal;font-weight:normal;font-stretch:normal;font-family:'Gill Sans Ultra Bold';-inkscape-font-specification:'Gill Sans Ultra Bold, ';text-align:end;text-anchor:end;stroke-width:0.396115"
         id="path861" />
      <path
         d="m 136.58116,47.803611 v 11.361674 q 0,7.437627 -3.80911,10.770604 -3.7927,3.332977 -8.66903,3.332977 -3.53,0 -6.71521,-1.838884 -3.16879,-1.838884 -4.44944,-4.843488 -1.28065,-3.021023 -1.28065,-7.913768 V 47.803611 h 11.09898 v 11.607953 q 0,1.871721 0.32837,2.364279 0.32837,0.492558 0.98512,0.492558 0.91944,0 1.16572,-0.886605 0.24628,-0.903023 0.24628,-3.021023 V 47.803611 Z"
         style="font-style:normal;font-variant:normal;font-weight:normal;font-stretch:normal;font-family:'Gill Sans Ultra Bold';-inkscape-font-specification:'Gill Sans Ultra Bold, ';text-align:end;text-anchor:end;stroke-width:0.396115"
         id="path863" />
      <path
         d="m 156.44767,53.090401 v 5.549488 h -4.236 v 4.236 q 0,2.150837 1.92098,2.150837 1.412,0 2.42995,-1.412 v 7.831675 q -2.39711,1.576186 -5.8286,1.576186 -3.66135,0 -6.1734,-2.183675 -2.49562,-2.183674 -2.49562,-6.009209 v -6.189814 h -4.13749 l 14.28418,-11.197488 v 5.648 z"
         style="font-style:normal;font-variant:normal;font-weight:normal;font-stretch:normal;font-family:'Gill Sans Ultra Bold';-inkscape-font-specification:'Gill Sans Ultra Bold, ';text-align:end;text-anchor:end;stroke-width:0.396115"
         id="path865" />
      <path
         d="m 166.77498,53.156075 q -1.18214,0 -2.03591,-0.853767 -0.85377,-0.853767 -0.85377,-2.035907 0,-1.182139 0.85377,-2.019488 0.85377,-0.837349 2.03591,-0.837349 1.18214,0 2.01948,0.837349 0.83735,0.837349 0.83735,2.019488 0,1.18214 -0.83735,2.035907 -0.83734,0.853767 -2.01948,0.853767 z m 2.92251,-0.06567 V 72.8584 h -10.1467 V 53.090401 q 2.00307,1.132884 5.2047,1.132884 2.97176,0 4.942,-1.132884 z"
         style="font-style:normal;font-variant:normal;font-weight:normal;font-stretch:normal;font-family:'Gill Sans Ultra Bold';-inkscape-font-specification:'Gill Sans Ultra Bold, ';text-align:end;text-anchor:end;stroke-width:0.396115"
         id="path867" />
      <path
         d="m 183.68614,72.8584 h -10.1467 V 47.803611 h 10.1467 z"
         style="font-style:normal;font-variant:normal;font-weight:normal;font-stretch:normal;font-family:'Gill Sans Ultra Bold';-inkscape-font-specification:'Gill Sans Ultra Bold, ';text-align:end;text-anchor:end;stroke-width:0.396115"
         id="path869" />
      <path
         d="m 185.83698,70.937424 2.26577,-5.549488 q 1.05079,1.412 2.52846,2.216511 1.47768,0.788093 2.90609,0.788093 0.88661,0 1.412,-0.394046 0.54182,-0.394047 0.54182,-1.017954 0,-0.607488 -0.45972,-1.05079 -0.4433,-0.459721 -2.3807,-1.017954 -1.95381,-0.558232 -3.20163,-1.214977 -1.24781,-0.673162 -2.08516,-1.970232 -0.82093,-1.29707 -0.82093,-2.824 0,-2.955349 2.52846,-4.580791 2.54489,-1.64186 7.12568,-1.64186 5.15544,0 8.81679,1.691116 l -2.42995,5.040512 q -2.39712,-2.150837 -4.63005,-2.150837 -0.73884,0 -1.19856,0.328372 -0.45972,0.328372 -0.45972,0.837348 0,0.607489 0.45972,1.050791 0.47614,0.443302 2.49563,0.952279 2.05232,0.508977 3.38223,1.165721 1.34633,0.656744 2.13442,1.970233 0.80451,1.313488 0.80451,3.004604 0,3.05386 -2.47921,4.82707 -2.46279,1.75679 -6.38683,1.75679 -5.31963,0 -10.86912,-2.216511 z"
         style="font-style:normal;font-variant:normal;font-weight:normal;font-stretch:normal;font-family:'Gill Sans Ultra Bold';-inkscape-font-specification:'Gill Sans Ultra Bold, ';text-align:end;text-anchor:end;stroke-width:0.396115"
         id="path871" />
    </g>
    <text
       xml:space="preserve"
       id="text862"
       style="font-style:normal;font-variant:normal;font-weight:bold;font-stretch:normal;font-size:50.8px;line-height:1.25;font-family:Calibri;-inkscape-font-specification:'Calibri Bold';letter-spacing:0px;word-spacing:0px;white-space:pre;shape-inside:url(#rect864);fill:#000000;fill-opacity:1;stroke:none;" />
  </g>
</svg>
